<svg width="471" height="355" viewBox="0 0 471 355" fill="none" xmlns="http://www.w3.org/2000/svg">
<path d="M175.511 254.977C224.357 254.977 263.955 215.379 263.955 166.534C263.955 117.688 224.357 78.0908 175.511 78.0908C126.664 78.0908 87.0664 117.688 87.0664 166.534C87.0664 215.379 126.664 254.977 175.511 254.977Z" fill="#F0F0F6"/>
<path d="M356.634 254.978C405.107 254.978 444.401 215.684 444.401 167.212C444.401 118.74 405.107 79.4463 356.634 79.4463C308.162 79.4463 268.867 118.74 268.867 167.212C268.867 215.684 308.162 254.978 356.634 254.978Z" fill="#F0F0F6"/>
<path d="M266.418 254.98C333.448 254.98 387.786 200.642 387.786 133.614C387.786 66.5853 333.448 12.248 266.418 12.248C199.389 12.248 145.051 66.5853 145.051 133.614C145.051 200.642 199.389 254.98 266.418 254.98Z" fill="#F0F0F6"/>
<path d="M358.758 203.267H173.406V254.894H358.758V203.267Z" fill="#F0F0F6"/>
<path d="M345.027 79.6357L357.453 77.3281L360.116 96.2325L345.294 98.8063L345.027 79.6357Z" fill="#44B4C3"/>
<path d="M293.634 167.497C290.972 161.373 278.458 148.681 264.701 143.533C250.944 138.386 239.228 135.723 235.767 134.924C235.767 129.067 235.234 125.605 233.548 125.605C231.862 125.605 229.643 131.729 229.643 131.729C229.643 131.729 230.885 119.215 228.134 118.505C225.471 117.795 224.229 121.7 222.986 124.895C221.744 121.434 219.791 117.085 217.128 117.085C214.466 117.085 215.176 128.623 215.886 132.794C216.596 136.966 217.129 143.09 218.815 145.042C220.501 146.995 222.986 148.947 222.986 148.947C222.986 148.947 222.986 157.024 224.673 159.953C226.359 162.881 238.873 165.367 245.441 168.562C252.009 171.757 258.665 177.348 265.233 190.129C277.481 181.697 293.634 167.497 293.634 167.497Z" fill="#F5CDB8"/>
<path d="M264.435 188.088L291.15 163.414C289.286 160.929 286.623 158.089 283.517 155.249L256.891 177.082C259.376 179.922 261.861 183.561 264.435 188.088Z" fill="#44B4C3"/>
<path d="M289.646 155.339L254.41 186.669C254.41 186.669 304.911 248.263 312.189 256.073C319.733 264.061 334.378 260.688 339.969 254.121C346.537 246.577 360.294 230.246 360.294 230.246L289.646 155.339Z" fill="white"/>
<path d="M345.916 84.9556L353.637 95.2509L389.938 72.4414L362.956 218.972L325.68 189.063L342.72 85.4881L345.916 84.9556Z" fill="#44B4C3"/>
<path d="M386.658 86.0205L352.576 102.617L342.547 88.9494" stroke="#7EE6CB" stroke-width="1.92" stroke-miterlimit="10" stroke-linejoin="round"/>
<path d="M345.653 123.917C345.653 123.917 345.121 91.433 344.943 79.6289C342.902 80.1614 341.215 80.6939 339.973 81.0489C330.654 83.9778 323.11 92.5868 319.204 101.817C315.299 111.136 315.122 166.518 311.039 176.813L342.813 177.878L345.653 123.917Z" fill="white"/>
<path d="M460.852 235.923C459.166 224.918 421.357 126.846 417.984 116.373C414.522 105.812 426.859 100.131 419.759 93.475C414.789 88.8598 397.215 76.9669 390.026 72.5293L353.371 111.936L351.773 189.328L344.584 183.204L325.68 235.835C325.68 235.835 389.849 288.731 411.15 299.293C432.451 309.854 446.918 305.417 457.657 296.098C470.082 285.359 462.538 246.929 460.852 235.923Z" fill="white"/>
<path d="M346.273 180.542C341.125 175.129 321.067 146.018 316.363 146.018C311.659 146.018 315.83 153.828 317.339 157.023C318.848 160.218 323.729 168.295 317.872 169.537C312.014 170.78 301.452 164.123 298.079 161.904C294.618 159.686 287.784 156.047 289.47 161.372C291.157 166.786 293.109 169.981 293.109 169.981C293.109 169.981 294.618 175.839 296.571 177.791C297.281 181.696 298.523 184.891 302.961 191.015C307.399 197.139 323.019 215.955 323.019 215.955L346.273 180.542Z" fill="#F5CDB8"/>
<path d="M320.617 219.064L335.705 231.755L348.042 181.965L346.267 180.545L320.617 219.064Z" fill="#44B4C3"/>
<path d="M467.686 236.373C464.669 225.633 433.782 122.503 430.321 111.941C428.901 107.592 427.392 103.066 425.439 100.048C419.493 89.9304 406.357 85.9365 396.328 98.7169C385.145 112.829 400.854 208.948 400.854 208.948L346.271 180.458L325.68 235.84C325.68 235.84 389.849 288.737 411.15 299.298C432.451 309.86 446.918 307.197 459.255 296.281C474.609 282.613 471.68 250.218 467.686 236.373Z" fill="white"/>
<path d="M202.581 101.932H298.435C306.601 101.932 313.168 95.3646 313.168 87.1993V86.8443C313.168 78.679 306.601 72.1113 298.435 72.1113H202.581C194.415 72.1113 187.848 78.679 187.848 86.8443V87.1993C187.848 95.3646 194.415 101.932 202.581 101.932Z" fill="#7EE6CB"/>
<path d="M313.164 86.8425C313.164 85.4225 312.987 84.0912 312.632 82.8486C308.194 87.8188 304.289 89.8601 304.289 89.8601L312.277 91.9014C312.366 91.9014 312.454 91.8127 312.454 91.8127C312.898 90.3926 313.164 88.7951 313.164 87.1975V86.8425Z" fill="#3EDAB2"/>
<path d="M303.845 87.2861C308.726 90.57 319.377 89.5937 319.377 89.5937C313.075 97.3152 306.063 101.664 299.141 101.93L303.845 87.2861Z" fill="#7EE6CB"/>
<path d="M207.281 91.0147C214.648 92.9673 222.192 91.0147 227.606 85.6008C228.05 85.1571 228.139 84.5358 227.784 84.0033C226.896 82.4945 224.677 82.4057 223.967 84.1808C222.902 86.9321 227.34 89.5059 229.292 90.3935C232.754 91.991 236.925 92.1685 240.475 90.6597C243.138 89.5947 246.067 85.7783 248.907 88.1747C250.15 89.1509 250.061 90.8372 252.013 91.3698C257.072 92.7011 258.581 84.802 263.818 87.2871C267.19 88.8847 268.877 91.636 272.959 90.1272C276.598 88.7959 279.35 84.0033 283.787 87.9084C284.852 88.8847 285.03 90.0385 286.539 90.6597C290.178 92.0798 293.994 88.2634 297.367 87.8196C299.053 87.5534 298.343 84.9795 296.657 85.2458C292.485 85.8671 289.556 89.7722 285.829 86.1333C283.965 84.3583 283.166 83.027 280.326 83.382C276.598 83.8258 274.468 87.1984 270.741 87.2871C267.102 87.3759 265.504 83.9145 262.043 83.6483C259.291 83.382 258.404 85.3346 256.362 86.5771L255.564 87.3759C254.144 87.1984 252.723 86.9321 251.303 86.7546C250.86 86.4884 250.771 85.7783 250.416 85.5121C249.528 84.8908 248.818 84.447 247.664 84.447C244.824 84.2695 242.605 86.7546 240.298 87.9084C238.434 88.7959 236.304 89.1509 234.263 88.9734C232.843 88.8847 231.6 88.4409 230.357 87.8196C229.647 87.4646 225.831 85.5121 225.742 85.2458C225.831 84.7133 225.92 84.1808 225.92 83.6483C221.127 88.3522 214.648 90.1272 208.169 88.3522C206.305 87.9971 205.595 90.571 207.281 91.0147Z" fill="#3EDAB2"/>
<path d="M293.334 61.2506H197.664C189.515 61.2506 182.959 54.6829 182.959 46.5177V46.1626C182.959 37.9974 189.515 31.4297 197.664 31.4297H293.334C301.484 31.4297 308.039 37.9974 308.039 46.1626V46.5177C308.039 54.6829 301.484 61.2506 293.334 61.2506Z" fill="#6FC7F4"/>
<path d="M182.97 46.1648C182.97 44.7447 183.147 43.4134 183.501 42.1709C187.93 47.1411 191.828 49.1824 191.828 49.1824L183.856 51.2237C183.767 51.2237 183.678 51.1349 183.678 51.1349C183.236 49.7149 182.97 48.1173 182.97 46.5198V46.1648Z" fill="#4EADD5"/>
<path d="M192.258 46.6094C187.386 49.8932 176.756 48.917 176.756 48.917C183.046 56.6385 190.044 60.9873 196.953 61.2536L192.258 46.6094Z" fill="#6FC7F4"/>
<path d="M288.646 50.3341C281.294 52.2866 273.764 50.3341 268.361 44.9202C267.918 44.4764 267.829 43.8551 268.183 43.3226C269.069 41.8138 271.284 41.7251 271.993 43.5001C273.056 46.2514 268.626 48.8253 266.678 49.7128C263.223 51.3104 259.059 51.4879 255.516 49.9791C252.859 48.914 249.935 45.0977 247.101 47.494C245.86 48.4703 245.949 50.1566 244 50.6891C238.951 52.0204 237.445 44.1214 232.219 46.6065C228.852 48.204 227.169 50.9553 223.095 49.4465C219.463 48.1153 216.717 43.3226 212.287 47.2277C211.224 48.204 211.047 49.3578 209.541 49.9791C205.909 51.3991 202.1 47.5827 198.734 47.139C197.051 46.8727 197.76 44.2989 199.443 44.5651C203.606 45.1864 206.529 49.0915 210.25 45.4527C212.11 43.6776 212.907 42.3463 215.742 42.7013C219.463 43.1451 221.589 46.5177 225.309 46.6065C228.941 46.6952 230.536 43.2339 233.99 42.9676C236.736 42.7013 237.622 44.6539 239.66 45.8964L240.457 46.6952C241.874 46.5177 243.292 46.2515 244.709 46.074C245.152 45.8077 245.24 45.0977 245.595 44.8314C246.481 44.2101 247.189 43.7664 248.341 43.7664C251.175 43.5889 253.39 46.0739 255.693 47.2277C257.553 48.1153 259.679 48.4703 261.717 48.2928C263.134 48.204 264.374 47.7603 265.615 47.139C266.323 46.784 270.132 44.8314 270.221 44.5651C270.132 44.0326 270.044 43.5001 270.044 42.9676C274.827 47.6715 281.294 49.4465 287.76 47.6715C289.621 47.3165 290.329 49.8903 288.646 50.3341Z" fill="#4EADD5"/>
<path d="M225.127 157.204C225.393 154.896 226.28 153.299 227.434 152.411C230.629 149.66 232.582 148.24 235.777 145.577C236.665 144.867 237.73 144.068 238.795 144.512C239.682 144.867 240.126 146.021 239.949 146.908C239.771 147.885 239.15 148.684 238.617 149.482C237.641 150.725 235.777 153.742 234.446 155.695C233.736 156.849 233.913 158.358 234.89 159.245C235.422 159.689 235.955 160.133 236.398 160.399M223.174 147.086C224.949 141.14 226.547 136.968 229.032 131.377M236.043 135.459C235.422 139.187 234.89 143.003 234.268 146.731M219.535 136.968C220.6 132.708 221.932 128.448 223.529 124.365M294.621 168.564C299.503 173.268 303.319 176.641 309.709 179.037M297.639 177.972C301.278 182.321 305.449 186.226 309.975 189.599" stroke="#F0AC94" stroke-width="2.88" stroke-miterlimit="10" stroke-linecap="round"/>
<path d="M327.278 92.0566C324.526 114.067 338.017 138.297 331.627 159.509" stroke="#F0F0F6" stroke-width="2.88" stroke-miterlimit="10" stroke-linecap="round"/>
<path d="M353.203 183.824L433.259 225.361" stroke="#F0F0F6" stroke-width="2.88" stroke-miterlimit="10" stroke-linecap="round"/>
<path d="M373.615 184.004C364.207 183.915 357.728 177.081 359.148 168.739L364.385 137.143C365.805 128.8 374.503 122.055 383.911 122.055C393.319 122.143 399.798 128.977 398.378 137.32L393.141 168.916C391.721 177.348 383.023 184.093 373.615 184.004Z" stroke="#B9BAEF" stroke-width="2.88" stroke-miterlimit="10" stroke-linecap="round"/>
<path d="M391.175 77.2354L385.228 113.091M385.228 113.091C394.636 113.091 401.115 120.014 399.695 128.357L397.92 139.096M385.228 113.091C375.821 113.003 367.123 119.748 365.703 128.179L363.75 139.895" stroke="#7677DF" stroke-width="2.88" stroke-miterlimit="10" stroke-linecap="round"/>
<path d="M418.335 98.624C413.631 100.577 412.211 106.434 411.412 111.493C406.619 143.178 403.069 174.951 400.762 206.902" stroke="#F0F0F6" stroke-width="2.88" stroke-miterlimit="10" stroke-linecap="round"/>
<path d="M353.277 111.935L373.513 120.633L398.187 77.144L392.95 65.3398L381.767 65.6061L388.246 78.209L353.277 111.935Z" fill="white"/>
<path d="M386.748 75.3689L392.872 65.3398H381.156L386.748 75.3689Z" fill="#BDBEF0"/>
<path d="M354.699 112.651L373.515 120.639L397.567 78.2148" stroke="#F0F0F6" stroke-width="2.88" stroke-miterlimit="10" stroke-linecap="round" stroke-linejoin="round"/>
<path d="M332.609 124.273L338.378 91.6123C339.798 83.802 345.39 77.4118 352.934 75.0155L360.478 72.6191" stroke="#7677DF" stroke-width="2.88" stroke-miterlimit="10" stroke-linecap="round"/>
<path d="M332.159 137.143C336.619 137.143 340.235 133.527 340.235 129.067C340.235 124.606 336.619 120.99 332.159 120.99C327.698 120.99 324.082 124.606 324.082 129.067C324.082 133.527 327.698 137.143 332.159 137.143Z" fill="#BDBEF0"/>
<path d="M332.168 133.86C334.815 133.86 336.96 131.714 336.96 129.067C336.96 126.42 334.815 124.274 332.168 124.274C329.521 124.274 327.375 126.42 327.375 129.067C327.375 131.714 329.521 133.86 332.168 133.86Z" fill="#D5D5F6"/>
<path d="M326.305 49.9841C325.417 49.8066 324.441 49.5404 324.175 48.7416C323.997 48.1203 324.263 47.4991 324.53 46.8778C326.66 42.2626 328.879 37.7362 331.009 33.1211C332.34 34.2749 332.429 36.2275 332.518 37.9138C332.606 40.4876 332.695 42.9727 332.784 45.5465C332.784 46.6115 332.873 47.5878 332.518 48.5641C331.453 51.5817 328.701 50.4279 326.305 49.9841Z" fill="#F0AC94"/>
<path d="M332.514 16.6171L358.962 15.0195L364.998 39.1603L385.943 72.8864C387.452 75.2827 387.541 78.3891 386.032 80.8741L355.146 94.8971L348.489 86.1993L344.584 67.7387C340.058 70.3125 335.442 70.9338 331.182 67.2062C323.993 60.9048 328.697 34.3677 332.514 16.6171Z" fill="#F5CDB8"/>
<path d="M360.477 45.3748C360.655 46.3511 361.542 46.9723 362.341 47.0611C363.229 47.2386 364.826 46.7948 365.891 44.931C367.489 42.2684 368.022 40.5821 365.625 38.9846C361.986 36.4995 359.856 42.0909 360.477 45.3748ZM344.324 67.208C347.786 61.9716 351.691 55.9364 351.78 55.1376C351.78 55.1376 358.081 60.6403 354.708 69.1605C353.111 73.2432 349.472 74.752 346.188 75.107L344.324 67.208Z" fill="#F0AC94"/>
<path d="M332.34 33.8362C332.429 33.2149 332.784 32.7712 333.583 32.8599C335.003 33.0374 335.18 36.41 334.027 36.9426C333.672 37.1201 333.228 36.9426 332.873 36.6763C332.518 36.41 332.429 35.9663 332.34 35.5225C332.34 35.0788 332.251 34.3687 332.34 33.8362Z" fill="#2E3649"/>
<path d="M372.005 9.25049C367.922 6.32164 361.887 5.25661 357.006 5.61162C351.503 5.96663 346.621 10.138 341.03 8.80672C337.391 7.91919 332.51 5.52287 329.314 8.00795C326.563 10.138 325.409 13.5106 325.143 16.8832C324.699 23.0959 327.806 31.7937 335.35 27.7998C337.125 26.9123 338.545 25.4923 340.142 24.4272C349.728 18.4808 349.373 36.0539 349.728 41.4678C349.817 43.4203 349.817 45.4617 349.462 47.4142C348.929 50.1656 347.065 53.1831 344.136 53.8044C342.361 54.1594 340.497 53.8932 338.722 53.0944C337.657 52.6506 336.947 52.2069 336.148 51.4968C335.172 50.6981 334.995 50.2543 333.397 49.8993C331.622 49.4555 329.226 49.988 327.362 50.2543C327.184 51.8519 327.184 52.9169 327.184 54.2482C327.184 55.8457 327.184 57.3545 327.362 58.9521C327.628 63.4785 328.604 68.0936 332.332 70.7562C336.947 74.0401 342.983 72.4425 347.065 68.9812C351.68 64.9873 354.166 59.0408 355.142 53.0944C356.029 47.7692 356.207 41.9115 355.142 36.4976C357.716 38.5389 360.29 40.669 362.863 42.7103C365.349 44.6629 367.301 47.503 369.609 49.8105C369.964 50.1656 370.319 50.5206 370.851 50.6981C371.295 50.8756 371.828 50.7868 372.183 50.5206L372.271 50.4318C372.626 50.0768 372.626 49.4555 372.538 48.923C372.36 46.8817 371.739 44.7516 372.449 42.7991C373.248 40.8465 373.958 38.8052 374.845 36.8526C376.088 33.9238 378.04 30.8174 378.484 27.6223C379.46 20.7884 377.508 13.2444 372.005 9.25049Z" fill="#2E3649"/>
<path d="M357.991 32.2371C359.411 31.6158 361.008 31.5271 362.162 32.2371C365.623 34.4559 363.937 41.9112 362.694 44.9288C362.339 45.8163 361.718 46.7926 360.742 46.8813C359.766 46.9701 358.967 46.1713 358.434 45.2838C357.014 43.0649 354.352 37.651 355.15 34.8997C355.505 33.8346 356.659 32.7696 357.991 32.2371Z" fill="#F5CDB8"/>
<path d="M358.249 38.5374C359.136 37.0286 360.024 35.5198 360.911 34.0997C361.71 32.7684 359.669 31.6146 358.87 32.9459C357.982 34.4547 357.095 35.9635 356.207 37.3836C355.497 38.6261 357.45 39.8687 358.249 38.5374Z" fill="#F0AC94"/>
<path d="M327.278 53.3592C329.142 53.3592 332.958 52.4717 332.958 52.4717C332.958 52.4717 330.029 56.7318 327.278 57.3531C327.189 54.3355 327.278 53.3592 327.278 53.3592ZM353.283 111.936L392.956 65.3408L388.518 82.9139L353.283 111.936Z" fill="white"/>
<path d="M165.967 50.3965C164.2 53.588 164.942 57.6217 166.438 60.9604C167.934 64.2992 170.107 67.3436 171.149 70.8472C172.191 74.3509 171.82 78.6671 168.941 80.9283C167.898 81.7527 166.509 82.3592 166.108 83.6193C165.802 84.5792 166.179 85.5979 166.267 86.5989C166.491 89.184 164.577 91.6924 162.116 92.5227C159.654 93.353 156.816 92.6817 154.737 91.1507C152.676 89.5353 151.131 87.3538 150.292 84.8736" fill="#263238"/>
<path d="M88.7919 71.9052C87.8615 69.1141 82.7149 71.4459 80.966 69.0787C80.1082 67.878 79.6157 66.455 79.5477 64.9809C79.4798 63.5068 79.8394 62.0445 80.5833 60.7701C82.4087 57.7493 86.1715 56.2772 87.9086 53.2034C89.5044 50.3769 89.0275 46.885 88.6859 43.6522C88.3444 40.4195 88.3208 36.7745 90.5349 34.3896L104.367 47.3443C104.367 47.3443 89.1276 72.8886 88.7919 71.9052Z" fill="#263238"/>
<path d="M90.3337 42.791C92.9776 45.1111 93.5783 49.1329 92.6597 52.5247C91.741 55.9165 89.5681 58.8195 87.3305 61.5341C85.0928 64.2487 82.7139 66.9161 81.2653 70.1195C79.8167 73.3228 79.4222 77.2328 81.1946 80.2712C83.9505 84.982 90.5456 85.8417 94.3026 89.8047C97.3711 83.8387 101.525 78.4969 106.551 74.053" fill="#263238"/>
<path d="M165.716 184.813C165.716 184.813 169.585 211.005 173.371 216.564L153.739 223.63L144.087 203.898L152.172 168.644L165.716 184.813Z" fill="#5EA9FF"/>
<path d="M153.768 206.734C153.966 206.733 154.164 206.709 154.357 206.663C154.751 206.604 155.316 206.498 156.011 206.357C157.395 206.069 159.303 205.609 161.376 204.991C163.448 204.373 165.297 203.713 166.617 203.195C167.276 202.936 167.794 202.712 168.171 202.547C168.365 202.479 168.549 202.386 168.719 202.271C168.515 202.3 168.317 202.357 168.13 202.441L166.552 202.989C165.215 203.454 163.36 204.078 161.293 204.697C159.226 205.315 157.336 205.804 155.994 206.145L154.368 206.551C154.16 206.581 153.957 206.643 153.768 206.734Z" fill="#FAFAFA"/>
<path d="M155.858 193.736C156.41 193.774 156.966 193.748 157.512 193.659C160.167 193.375 162.78 192.782 165.297 191.893C165.826 191.734 166.336 191.517 166.816 191.245C166.275 191.349 165.744 191.496 165.226 191.687C164.249 191.981 162.871 192.37 161.387 192.717C159.903 193.065 158.49 193.306 157.483 193.459C156.935 193.507 156.391 193.6 155.858 193.736Z" fill="#FAFAFA"/>
<path d="M155.758 219.894C155.984 219.881 156.208 219.839 156.424 219.77C156.853 219.676 157.466 219.517 158.19 219.305C159.698 218.887 161.759 218.227 163.99 217.379C166.222 216.531 168.195 215.642 169.602 214.953C170.303 214.606 170.868 214.317 171.251 214.105C171.461 214.011 171.658 213.893 171.84 213.752C171.621 213.811 171.41 213.894 171.21 213.999L169.52 214.753C168.095 215.395 166.116 216.243 163.89 217.108C161.664 217.974 159.627 218.639 158.137 219.116L156.371 219.676C156.159 219.724 155.953 219.797 155.758 219.894Z" fill="#FAFAFA"/>
<g opacity="0.3">
<path d="M166.977 192.473C165.21 191.754 163.226 191 161.483 190.282C160.627 199.798 159.769 209.312 158.909 218.824C158.892 219.637 158.71 220.438 158.373 221.179C158.2 221.545 157.923 221.852 157.576 222.061C157.23 222.271 156.829 222.374 156.424 222.357C155.618 222.257 155.046 221.544 154.587 220.873C151.566 216.415 149.876 211.133 149.223 205.792C148.569 200.451 148.799 195.034 149.387 189.681C149.817 185.813 150.418 181.932 151.778 178.281C152.273 176.951 152.921 175.59 154.075 174.748C155.547 173.694 157.573 173.718 159.28 174.318C162.584 175.496 163.685 178.44 164.757 181.785C165.828 185.13 166.977 192.473 166.977 192.473Z" fill="black"/>
</g>
<path d="M75.6847 214.025V185.997L70.7029 101.556C80.8725 96.0152 92.944 91.6283 110.156 90.957L141.183 93.3124L168.059 108.204L161.669 159.234L153.537 204.057L158.401 236.579L75.6847 214.025Z" fill="white"/>
<path d="M129.549 223.608C129.8 223.649 130.055 223.661 130.308 223.643C130.797 223.643 131.486 223.643 132.381 223.567C136.953 223.243 141.428 222.085 145.583 220.151C146.372 219.78 147.003 219.45 147.432 219.209C147.662 219.101 147.878 218.964 148.074 218.803C147.831 218.879 147.596 218.98 147.373 219.103C146.938 219.315 146.29 219.609 145.495 219.951C143.409 220.853 141.257 221.595 139.059 222.171C136.861 222.735 134.622 223.129 132.364 223.349C131.498 223.437 130.791 223.496 130.308 223.525C130.053 223.523 129.798 223.55 129.549 223.608Z" fill="#263238"/>
<path d="M159.433 142.92L179.837 162.111L175.244 111.729L191.025 109.103L193.08 114.255C196.248 115.362 210.746 164.248 205.052 186.636C201.024 202.394 173.253 202.818 157.183 176.326L159.433 142.92Z" fill="white"/>
<path d="M77.6241 148.436C77.6241 148.436 50.8841 145.215 50.8252 142.641C50.7251 138.301 63.8802 104.578 71.0878 101.493C78.2954 98.407 77.6241 148.436 77.6241 148.436Z" fill="white"/>
<path d="M167.652 107.965C167.652 107.965 177.233 111.627 178.84 127.438C180.448 143.249 181.543 164.736 181.543 164.736L173.482 192.035L158.371 177.979L167.652 107.965Z" fill="white"/>
<path d="M176.014 117.194C176.233 117.255 176.458 117.293 176.686 117.306C177.127 117.359 177.763 117.406 178.546 117.424C180.602 117.479 182.659 117.321 184.682 116.953C186.706 116.592 188.682 115.999 190.571 115.186C191.145 114.945 191.703 114.67 192.243 114.362C192.453 114.264 192.651 114.142 192.832 113.996C192.832 113.949 191.955 114.409 190.477 114.986C188.572 115.729 186.6 116.285 184.588 116.646C182.582 117.006 180.549 117.193 178.511 117.206C176.986 117.217 176.014 117.141 176.014 117.194Z" fill="#263238"/>
<path d="M175.226 111.727C175.229 111.849 175.239 111.971 175.255 112.092C175.291 112.351 175.332 112.68 175.391 113.152C175.514 114.1 175.697 115.466 175.932 117.203V117.173C175.614 118.728 175.232 120.601 174.878 122.756C174.46 125.157 174.187 127.582 174.06 130.016C173.929 132.879 174.019 135.747 174.331 138.596C174.625 141.628 175.191 144.779 175.638 148.017C176 150.439 176.128 152.89 176.021 155.337C175.863 157.62 175.365 159.867 174.543 162.002C173.824 164.058 173.188 166.124 173.23 168.085C173.227 169.034 173.319 169.981 173.506 170.912C173.693 171.764 173.939 172.602 174.242 173.42C174.778 174.817 175.43 176.166 176.192 177.454C176.857 178.59 177.487 179.532 178.011 180.298C178.535 181.063 178.959 181.641 179.248 182.035L179.583 182.477C179.619 182.53 179.661 182.579 179.707 182.624C179.678 182.566 179.645 182.511 179.607 182.459L179.301 182C179.024 181.593 178.618 181.005 178.123 180.233C177.628 179.462 176.998 178.508 176.356 177.366C175.615 176.08 174.983 174.735 174.466 173.344C174.173 172.535 173.937 171.706 173.76 170.865C173.582 169.951 173.495 169.022 173.5 168.091C173.471 166.148 174.089 164.152 174.825 162.097C175.657 159.943 176.157 157.676 176.309 155.372C176.428 152.904 176.302 150.431 175.932 147.988C175.485 144.714 174.92 141.575 174.619 138.566C174.302 135.732 174.202 132.878 174.319 130.028C174.436 127.603 174.692 125.187 175.085 122.791C175.426 120.636 175.785 118.763 176.086 117.203C175.821 115.472 175.614 114.111 175.497 113.163C175.42 112.716 175.367 112.368 175.32 112.109C175.297 111.98 175.265 111.852 175.226 111.727Z" fill="#263238"/>
<path d="M175.555 144.282C175.319 144.477 175.099 144.69 174.895 144.918C174.689 145.124 174.442 145.389 174.177 145.713C173.912 146.037 173.588 146.39 173.293 146.826C172.946 147.286 172.622 147.764 172.322 148.257C171.965 148.813 171.637 149.387 171.338 149.976C169.941 152.675 169.077 155.618 168.795 158.644C168.747 159.345 168.683 160.004 168.695 160.623C168.706 161.241 168.695 161.8 168.742 162.348C168.789 162.896 168.836 163.349 168.889 163.767C168.924 164.124 168.981 164.478 169.06 164.827C169.103 165.13 169.176 165.428 169.277 165.716C169.268 165.41 169.234 165.105 169.177 164.804C169.136 164.515 169.083 164.162 169.06 163.75C169.036 163.337 168.959 162.86 168.959 162.336C168.959 161.812 168.918 161.247 168.959 160.629C169.001 160.01 169.03 159.363 169.089 158.674C169.394 155.681 170.24 152.768 171.586 150.076C171.91 149.488 172.204 148.899 172.54 148.363C172.875 147.827 173.17 147.362 173.47 146.932C173.77 146.502 174.059 146.131 174.312 145.801C174.565 145.472 174.789 145.213 174.983 144.971C175.196 144.761 175.387 144.53 175.555 144.282Z" fill="#263238"/>
<path d="M164.528 127.14C164.528 127.14 164.528 127.175 164.47 127.263C164.411 127.352 164.393 127.487 164.346 127.634C164.24 127.97 164.063 128.453 163.892 129.089C163.396 130.892 163.019 132.725 162.762 134.577C162.401 137.322 162.205 140.087 162.173 142.856C162.108 145.983 162.173 149.416 162.238 153.02C162.303 156.623 162.373 160.056 162.279 163.165C162.239 165.923 161.843 168.665 161.101 171.321C160.56 173.101 159.832 174.818 158.928 176.444C158.622 177.033 158.34 177.451 158.169 177.757L157.969 178.099L157.91 178.222C157.91 178.222 157.945 178.193 157.998 178.116L158.216 177.792C158.404 177.498 158.71 177.08 159.028 176.503C159.981 174.89 160.746 173.173 161.307 171.386C162.084 168.717 162.503 165.956 162.556 163.177C162.668 160.05 162.556 156.617 162.556 153.014C162.556 149.41 162.414 145.977 162.467 142.862C162.494 140.106 162.677 137.353 163.015 134.618C163.252 132.77 163.596 130.938 164.046 129.13C164.199 128.494 164.352 128.005 164.44 127.664C164.475 127.511 164.511 127.387 164.54 127.281C164.57 127.175 164.528 127.14 164.528 127.14Z" fill="#263238"/>
<path d="M69.6926 102.763C70.0384 102.901 70.3924 103.017 70.7525 103.111C71.7187 103.414 72.6647 103.778 73.5849 104.2C77.0784 105.809 80.1275 108.244 82.4688 111.295C84.8101 114.346 86.3731 117.922 87.0227 121.712C87.0712 122.083 87.14 122.45 87.2288 122.814C87.2415 122.716 87.2415 122.617 87.2288 122.519C87.2288 122.331 87.2287 122.054 87.1463 121.695C87.0239 120.684 86.8271 119.685 86.5575 118.703C85.6539 115.443 84.0291 112.427 81.803 109.879C79.577 107.331 76.8066 105.315 73.6968 103.982C72.7617 103.576 71.7971 103.241 70.8114 102.981C70.464 102.881 70.1872 102.834 70.0047 102.793C69.9023 102.77 69.7975 102.76 69.6926 102.763Z" fill="#263238"/>
<path d="M189.68 115.176C189.993 114.291 190.094 113.346 189.975 112.416C189.857 111.485 189.522 110.595 188.997 109.817C189.282 110.68 189.507 111.562 189.669 112.455C189.732 113.361 189.736 114.27 189.68 115.176Z" fill="#263238"/>
<path d="M184.39 110.205C184.208 112.439 184.644 114.68 185.65 116.682C185.738 116.647 185.226 115.257 184.879 113.485C184.531 111.713 184.484 110.205 184.39 110.205Z" fill="#263238"/>
<path d="M180.221 111.075C179.899 112.129 179.899 113.254 180.221 114.308C180.449 115.385 180.997 116.368 181.793 117.129C181.263 116.212 180.835 115.241 180.515 114.231C180.308 113.192 180.209 112.135 180.221 111.075Z" fill="#263238"/>
<path d="M177.304 111.529C176.948 112.489 176.862 113.528 177.057 114.532C177.15 115.551 177.525 116.524 178.141 117.341C177.812 116.41 177.552 115.455 177.363 114.485C177.275 113.503 177.255 112.515 177.304 111.529Z" fill="#263238"/>
<path d="M177.237 151.676C177.293 151.621 177.342 151.56 177.384 151.494C177.49 151.352 177.62 151.176 177.773 150.958C178.115 150.487 178.615 149.78 179.275 148.962C181.065 146.684 183.064 144.579 185.246 142.673H185.063C186.647 143.85 188.349 145.234 190.086 146.706C192.065 148.39 193.89 150.051 195.509 151.606L195.621 151.712L195.716 151.594C197.42 149.488 198.956 147.251 200.309 144.904C200.803 144.045 201.168 143.35 201.41 142.867L201.675 142.313C201.734 142.184 201.763 142.119 201.751 142.113C201.706 142.168 201.667 142.227 201.634 142.29L201.327 142.826C201.062 143.291 200.674 143.974 200.15 144.822C198.754 147.126 197.195 149.328 195.486 151.411H195.692C194.084 149.845 192.259 148.173 190.275 146.488C188.508 145.01 186.818 143.65 185.228 142.455L185.134 142.384L185.045 142.461C182.864 144.389 180.881 146.531 179.127 148.856C178.48 149.715 178.003 150.422 177.685 150.911C177.526 151.152 177.414 151.346 177.331 151.5C177.293 151.554 177.261 151.614 177.237 151.676Z" fill="#FAFAFA"/>
<path d="M175.218 163.394C175.328 163.305 175.431 163.206 175.524 163.1L176.378 162.234C177.114 161.481 178.186 160.397 179.576 159.113C180.265 158.477 181.036 157.788 181.878 157.07L183.197 155.963C183.642 155.568 184.142 155.241 184.681 154.991C184.955 154.868 185.253 154.807 185.554 154.813C185.854 154.819 186.15 154.892 186.418 155.027C186.982 155.344 187.498 155.74 187.949 156.204L191.011 159.078L195.133 162.941L195.233 163.035L195.333 162.941C197.97 160.439 200.382 157.71 202.541 154.785C203.336 153.696 203.937 152.795 204.308 152.177C204.508 151.865 204.655 151.617 204.755 151.452C204.813 151.375 204.858 151.29 204.891 151.199C204.823 151.269 204.764 151.346 204.714 151.429C204.584 151.606 204.425 151.835 204.225 152.118C203.801 152.707 203.177 153.602 202.364 154.673C200.181 157.556 197.771 160.259 195.157 162.758H195.357L191.235 158.884L188.167 156.016C187.695 155.521 187.151 155.1 186.554 154.768C186.247 154.619 185.912 154.54 185.571 154.533C185.231 154.527 184.893 154.595 184.581 154.732C184.018 155.001 183.497 155.348 183.032 155.763C182.581 156.155 182.145 156.526 181.725 156.876C180.883 157.606 180.123 158.307 179.434 158.96C178.068 160.262 177.014 161.369 176.302 162.152C175.942 162.54 175.672 162.847 175.495 163.059C175.392 163.162 175.3 163.274 175.218 163.394Z" fill="#FAFAFA"/>
<path d="M170.905 152.306C171.617 153.121 172.406 153.867 173.261 154.532C174.053 155.28 174.917 155.949 175.84 156.528C175.124 155.716 174.336 154.971 173.484 154.302C172.688 153.559 171.824 152.891 170.905 152.306Z" fill="#FAFAFA"/>
<path d="M162.419 139.9C162.419 139.9 162.561 140.053 162.785 140.347C163.09 140.776 163.356 141.231 163.58 141.707C163.899 142.452 164.399 143.106 165.034 143.609C165.442 143.912 165.949 144.048 166.453 143.992C166.96 143.866 167.434 143.633 167.843 143.309C169.551 142.178 171.082 141.136 172.189 140.365C172.736 139.982 173.178 139.67 173.484 139.446C173.651 139.341 173.804 139.215 173.938 139.069C173.753 139.137 173.578 139.23 173.419 139.346C173.095 139.54 172.63 139.823 172.065 140.188C170.934 140.907 169.38 141.919 167.672 143.056C167.3 143.355 166.868 143.572 166.406 143.692C165.976 143.747 165.541 143.633 165.193 143.374C164.585 142.908 164.098 142.302 163.774 141.607C163.527 141.131 163.227 140.684 162.879 140.276C162.753 140.121 162.597 139.992 162.419 139.9Z" fill="#FAFAFA"/>
<path d="M163.063 136.437C163.632 136.224 164.185 135.972 164.718 135.683C165.725 135.194 167.115 134.505 168.663 133.81C170.212 133.116 171.608 132.474 172.656 132.044C173.224 131.829 173.776 131.572 174.305 131.272C173.713 131.418 173.136 131.615 172.579 131.861C171.525 132.262 170.094 132.851 168.534 133.569C166.973 134.287 165.59 134.988 164.618 135.53C164.07 135.778 163.549 136.082 163.063 136.437Z" fill="#FAFAFA"/>
<path d="M125.528 156.835L125.67 156.758L126.064 156.499L127.548 155.498L132.919 151.783H132.76L142.146 163.03C142.647 163.671 143.209 164.263 143.824 164.796C144.135 165.065 144.496 165.27 144.886 165.399C145.276 165.529 145.687 165.58 146.097 165.55C146.869 165.436 147.606 165.15 148.252 164.714C148.888 164.319 149.477 163.901 150.066 163.536L156.278 159.296L160.459 156.446L161.578 155.657C161.711 155.566 161.839 155.468 161.961 155.363C161.814 155.43 161.674 155.511 161.543 155.604L160.365 156.346L156.137 159.12L149.883 163.242C149.295 163.63 148.706 164.048 148.076 164.419C147.464 164.826 146.77 165.093 146.044 165.203C145.672 165.228 145.298 165.18 144.944 165.061C144.591 164.942 144.264 164.754 143.983 164.508C143.384 163.986 142.837 163.406 142.352 162.776L132.93 151.588L132.86 151.5L132.771 151.565L127.472 155.363L126.023 156.417L125.646 156.705C125.564 156.794 125.522 156.829 125.528 156.835Z" fill="#FAFAFA"/>
<path d="M125.411 143.283C125.542 143.222 125.669 143.149 125.787 143.065C126.029 142.918 126.376 142.694 126.853 142.417C127.33 142.141 127.896 141.828 128.584 141.487C129.36 141.102 130.176 140.804 131.016 140.598C132.025 140.341 133.082 140.341 134.09 140.598C134.652 140.721 135.187 140.94 135.674 141.245C136.184 141.585 136.654 141.98 137.076 142.423C138.807 144.29 140.674 146.416 142.652 148.606C143.133 149.166 143.659 149.686 144.225 150.161C144.765 150.648 145.429 150.975 146.144 151.107C146.86 151.239 147.597 151.171 148.276 150.908C148.902 150.694 149.515 150.445 150.113 150.161L156.284 147.399L160.459 145.491L161.584 144.955C161.72 144.9 161.85 144.831 161.973 144.749C161.832 144.791 161.694 144.842 161.56 144.902L160.383 145.379L156.167 147.199L149.936 149.931C149.346 150.209 148.741 150.453 148.123 150.661C147.489 150.901 146.802 150.962 146.136 150.837C145.471 150.713 144.852 150.407 144.348 149.955C143.798 149.488 143.285 148.978 142.817 148.429C140.833 146.239 138.978 144.131 137.217 142.252C136.775 141.795 136.286 141.386 135.757 141.033C135.25 140.707 134.693 140.466 134.108 140.321C133.055 140.076 131.958 140.098 130.916 140.386C130.065 140.61 129.242 140.928 128.461 141.334C127.871 141.632 127.297 141.96 126.741 142.317C126.288 142.606 125.941 142.847 125.705 143.012C125.599 143.093 125.5 143.184 125.411 143.283Z" fill="#FAFAFA"/>
<path d="M82.1769 144.48C82.327 144.75 82.5004 145.006 82.6951 145.246C83.0779 145.77 83.5784 146.453 84.1849 147.272C85.4569 148.967 87.2352 151.305 89.2079 153.873L91.9991 157.482C92.4407 158.036 92.8235 158.572 93.2533 159.049C93.6453 159.52 94.1961 159.832 94.802 159.926C95.2925 159.974 95.7875 159.912 96.2506 159.743C96.5942 159.622 96.9271 159.473 97.2458 159.296C97.5108 159.149 97.7051 159.025 97.8346 158.943C97.9642 158.86 98.029 158.801 98.0231 158.789C98.0172 158.778 97.7286 158.937 97.1928 159.19C96.8716 159.345 96.5389 159.475 96.1976 159.579C95.7575 159.723 95.2908 159.767 94.8315 159.708C94.282 159.611 93.7874 159.316 93.4418 158.878C93.0413 158.419 92.6527 157.865 92.2228 157.311L89.4493 153.684C87.4766 151.117 85.6747 148.803 84.3616 147.136L82.7894 145.175C82.606 144.926 82.4011 144.694 82.1769 144.48Z" fill="#FAFAFA"/>
<path d="M88.2682 133.4C89.2979 135.158 90.4162 136.861 91.6187 138.505C92.7375 140.207 93.9423 141.85 95.2284 143.428C95.2932 143.381 93.7975 141.073 91.872 138.329C89.9464 135.585 88.3388 133.353 88.2682 133.4Z" fill="#FAFAFA"/>
<path d="M111.007 80.7834C108.38 81.3114 105.667 81.2182 103.082 80.5113C100.498 79.8043 98.1141 78.5031 96.1217 76.7116C94.1294 74.92 92.5833 72.6876 91.6068 70.1925C90.6303 67.6974 90.2504 65.0086 90.4975 62.3406C90.9627 57.3766 92.9059 54.8976 91.6752 50.0631C90.8449 46.742 89.573 44.0745 88.8958 40.7181C87.883 35.7129 90.5917 28.4759 93.7244 24.4423C95.7383 21.8573 97.7876 19.2251 100.473 17.3408C103.158 15.4565 110.654 14.0315 115.824 12.8008" fill="#263238"/>
<path d="M161.43 19.3496C160.888 23.0829 163.132 26.6101 165.428 29.6015C167.725 32.5928 170.292 35.7255 170.569 39.4823C171.058 46.154 164.162 51.8482 165.034 58.4492C165.499 61.9823 168.166 65.0148 168.431 68.5891C168.679 72.0457 166.612 75.2667 164.156 77.7104C161.701 80.1541 158.774 82.1268 156.566 84.7766C156.566 84.7766 151.89 91.3423 139.318 86.0367" fill="#263238"/>
<path d="M103.35 21.0289C103.492 17.6195 106.831 15.2111 110.087 14.1865C113.343 13.1619 116.894 12.944 119.856 11.2422C122.471 9.74067 124.337 7.23217 126.61 5.23597C129.409 2.77305 132.813 1.09946 136.473 0.387049C140.132 -0.32536 143.915 -0.0509094 147.434 1.18222C150.952 2.41535 154.079 4.56271 156.493 7.4038C158.907 10.2449 160.521 13.6773 161.17 17.3486C162.048 22.2831 160.811 27.9479 156.76 30.8921C152.049 34.3133 145.572 33.0179 139.948 31.4515C134.324 29.8852 128 28.2835 123.018 31.2866C120.015 33.0944 118.148 36.2506 116.182 39.1595C114.215 42.0685 111.806 45.0009 108.421 45.9019C105.035 46.8028 100.677 44.524 100.801 41.0203" fill="#263238"/>
<path d="M116.728 22.679C115.3 22.7304 113.942 23.3162 112.925 24.3205C111.907 25.3248 111.304 26.6744 111.234 28.1023L109.185 105.241C108.684 114.333 121.598 120.375 131.338 120.84C141.178 121.305 141.831 116.512 142.567 107.885C143.798 93.4645 144.163 88.0412 144.163 88.1236C144.163 88.2061 156.717 86.9165 160.398 70.8998C162.229 62.9327 162.753 49.7013 162.789 38.8606C162.847 29.1092 157.224 16.7434 147.478 17.1085L116.728 22.679Z" fill="#FFBE9D"/>
<path d="M158.308 49.3801C158.275 49.922 158.032 50.4298 157.631 50.7957C157.23 51.1617 156.702 51.3573 156.159 51.3409C155.893 51.3441 155.629 51.294 155.383 51.1935C155.137 51.0931 154.914 50.9443 154.726 50.7561C154.538 50.5678 154.39 50.3438 154.29 50.0974C154.191 49.8509 154.141 49.587 154.145 49.3212C154.177 48.7797 154.419 48.272 154.819 47.9059C155.219 47.5398 155.747 47.344 156.289 47.3603C156.555 47.3572 156.819 47.4072 157.065 47.5076C157.312 47.608 157.536 47.7567 157.724 47.9448C157.912 48.133 158.061 48.3569 158.161 48.6034C158.262 48.8499 158.312 49.1139 158.308 49.3801Z" fill="#263238"/>
<path d="M159.53 44.4928C159.259 44.746 157.763 43.4741 155.525 43.3151C153.288 43.1561 151.58 44.1748 151.356 43.904C151.244 43.7744 151.539 43.3151 152.287 42.8323C153.3 42.2256 154.478 41.9498 155.655 42.0432C156.817 42.1171 157.925 42.5607 158.817 43.3092C159.471 43.8745 159.665 44.3809 159.53 44.4928Z" fill="#263238"/>
<path d="M136.73 48.7932C136.698 49.3341 136.456 49.8412 136.056 50.2064C135.656 50.5716 135.128 50.766 134.587 50.7482C134.321 50.7513 134.057 50.7012 133.811 50.6008C133.565 50.5003 133.341 50.3516 133.154 50.1633C132.966 49.975 132.818 49.7511 132.718 49.5046C132.618 49.2582 132.569 48.9942 132.573 48.7284C132.605 48.1869 132.847 47.6792 133.247 47.3131C133.647 46.947 134.174 46.7513 134.716 46.7675C134.982 46.7652 135.246 46.816 135.493 46.9171C135.739 47.0182 135.962 47.1675 136.15 47.3563C136.338 47.545 136.486 47.7693 136.585 48.0161C136.685 48.2629 136.734 48.5271 136.73 48.7932Z" fill="#263238"/>
<path d="M137.443 44.4501C137.166 44.7034 135.676 43.4314 133.432 43.2724C131.189 43.1135 129.487 44.1322 129.263 43.8613C129.151 43.7318 129.446 43.2725 130.2 42.7896C131.212 42.1848 132.387 41.9091 133.562 42.0005C134.724 42.0745 135.832 42.5181 136.724 43.2666C137.39 43.8319 137.59 44.3383 137.443 44.4501Z" fill="#263238"/>
<path d="M144.437 61.5815C144.437 61.4579 145.839 61.3107 148.112 61.1752C148.701 61.1752 149.236 61.081 149.354 60.6983C149.446 60.1115 149.354 59.5107 149.089 58.9788C148.648 57.5656 148.188 56.0758 147.7 54.5212C145.786 48.1735 144.437 42.968 144.69 42.8915C144.944 42.8149 146.71 47.9026 148.63 54.2504C149.089 55.8167 149.531 57.3065 149.949 58.7315C150.12 59.3969 150.438 60.1565 150.09 60.9927C149.994 61.1881 149.854 61.3591 149.681 61.4927C149.509 61.6263 149.309 61.7191 149.095 61.7641C148.773 61.8267 148.445 61.8485 148.118 61.8289C145.845 61.7994 144.437 61.7111 144.437 61.5815Z" fill="#263238"/>
<path d="M144.164 88.1268C136.531 87.7232 129.161 85.2053 122.877 80.8545C122.877 80.8545 127.588 92.3665 143.893 91.9602L144.164 88.1268Z" fill="#EB946E"/>
<path d="M150.408 69.8619C150.02 69.2896 149.491 68.8266 148.872 68.5173C148.253 68.208 147.566 68.0627 146.875 68.0953C146.379 68.103 145.89 68.2113 145.438 68.4138C144.985 68.6162 144.579 68.9086 144.243 69.273C143.921 69.6262 143.715 70.0688 143.651 70.542C143.586 71.0153 143.668 71.4968 143.884 71.9228C144.425 72.812 145.65 73.1005 146.763 72.865C147.833 72.5574 148.832 72.0455 149.707 71.3575C149.968 71.2035 150.2 71.0041 150.39 70.7687C150.48 70.6496 150.532 70.507 150.541 70.3585C150.551 70.21 150.517 70.062 150.443 69.9325" fill="#EB946E"/>
<path d="M138.917 38.6999C138.652 39.2887 136.444 38.853 133.8 38.9884C131.156 39.1239 128.983 39.695 128.677 39.1238C128.535 38.853 128.947 38.3112 129.854 37.7813C131.044 37.1363 132.366 36.7718 133.718 36.7156C135.07 36.6595 136.417 36.9132 137.657 37.4574C138.581 37.9108 139.029 38.4172 138.917 38.6999Z" fill="#263238"/>
<path d="M159.081 39.0206C158.651 39.4975 157.149 38.8675 155.3 38.7144C153.451 38.5613 151.855 38.8204 151.532 38.2669C151.39 37.996 151.673 37.5072 152.391 37.0892C153.35 36.5755 154.439 36.3573 155.522 36.4621C156.604 36.5669 157.632 36.99 158.474 37.678C159.092 38.2433 159.269 38.785 159.081 39.0206Z" fill="#263238"/>
<path d="M101.65 75.145C103.856 75.7586 106.178 75.8375 108.421 75.3752C110.664 74.9129 112.765 73.9227 114.55 72.4866C116.334 71.0505 117.75 69.2098 118.682 67.1172C119.613 65.0245 120.032 62.7401 119.904 60.4532C119.68 56.4432 117.825 52.2447 119.468 48.582C121.647 43.7358 128.731 42.6936 130.933 37.865C132.211 35.0503 131.487 31.6055 132.906 28.8674C134.237 26.2882 137.146 24.9574 139.937 24.1566C142.728 23.3558 145.69 22.8847 148.093 21.283C150.495 19.6813 152.168 16.4073 150.866 13.8164C138.672 14.4137 126.593 16.4576 114.881 19.9051C112.167 20.7059 109.311 21.6716 107.579 23.9328C105.748 26.2882 105.601 29.521 105.53 32.5124C105.177 47.1001 104.825 61.6839 104.476 76.2638" fill="#263238"/>
<path d="M145.474 73.0698C145.474 72.9815 145.268 72.9403 145.015 72.8166C144.675 72.6384 144.398 72.3611 144.22 72.0217C144.1 71.7875 144.038 71.5281 144.038 71.265C144.038 71.0019 144.1 70.7425 144.22 70.5083C144.515 69.8758 145.021 69.3657 145.651 69.0657C146.243 68.7677 146.902 68.6275 147.564 68.6584C148.226 68.6894 148.87 68.8905 149.431 69.2423C150.344 69.7899 150.733 70.42 150.898 70.3317C150.974 70.2963 150.974 70.0903 150.839 69.7428C150.642 69.2758 150.339 68.8606 149.955 68.5298C149.374 68.0128 148.661 67.6682 147.894 67.5346C146.941 67.3714 145.961 67.5179 145.097 67.9527C144.199 68.3873 143.504 69.1536 143.16 70.0902C143.009 70.5168 142.967 70.9741 143.036 71.4211C143.1 71.8156 143.269 72.1857 143.525 72.4928C143.69 72.715 143.902 72.8989 144.145 73.0321C144.387 73.1652 144.656 73.2443 144.932 73.2641C145.309 73.2818 145.486 73.1464 145.474 73.0698Z" fill="#263238"/>
<path d="M90.6268 42.1628C91.505 42.4151 92.4067 42.5769 93.3179 42.6457C95.814 42.8525 98.327 42.599 100.732 41.8978C102.391 41.4269 104.002 40.7999 105.543 40.0253C107.305 39.1247 108.985 38.0726 110.565 36.8809C113.934 34.39 117.178 31.116 120.482 27.6359C122.038 25.898 123.728 24.2837 125.534 22.8074C127.221 21.4503 129.194 20.4957 131.305 20.0162C133.233 19.6416 135.195 19.4778 137.158 19.5275C139.007 19.5275 140.733 19.5864 142.311 19.5275C144.821 19.5092 147.295 18.9234 149.548 17.8139C150.147 17.4816 150.71 17.0869 151.226 16.6362C151.379 16.4831 151.509 16.3654 151.609 16.2711C151.653 16.2326 151.692 16.1892 151.727 16.1416C151.674 16.1696 151.627 16.2054 151.585 16.2476L151.185 16.5891C150.656 17.0068 150.088 17.3716 149.489 17.6785C147.242 18.7365 144.788 19.2835 142.305 19.2802C140.733 19.3449 139.013 19.2802 137.158 19.2802C135.184 19.2188 133.21 19.3748 131.27 19.7454C129.117 20.2297 127.103 21.1983 125.381 22.5777C123.563 24.062 121.862 25.6842 120.293 27.4298C116.99 30.9099 113.763 34.1721 110.436 36.6571C108.872 37.8453 107.209 38.8973 105.466 39.8015C103.942 40.5799 102.349 41.2147 100.708 41.6976C98.329 42.4079 95.8428 42.691 93.365 42.5338C92.9233 42.5338 92.5406 42.4631 92.1873 42.416C91.834 42.3689 91.569 42.3277 91.3393 42.2806L90.8211 42.1864C90.7578 42.1691 90.6924 42.1611 90.6268 42.1628Z" fill="white"/>
<path d="M90.263 30.8418L90.422 30.9007L90.899 31.0597C91.5231 31.2318 92.1656 31.3286 92.8127 31.3482C93.8394 31.3529 94.8586 31.1734 95.8218 30.8182C97.0857 30.3306 98.3019 29.7274 99.4551 29.0164C100.871 28.1903 102.209 27.2384 103.453 26.1722C104.808 25.0416 106.168 23.7403 107.611 22.38C109.097 20.9455 110.67 19.6043 112.322 18.3641C114.089 17.025 116.084 16.0157 118.21 15.3845C120.348 14.8175 122.568 14.6301 124.77 14.831C126.825 15.0092 128.865 15.328 130.876 15.7849C132.814 16.1971 134.639 16.6446 136.376 16.9626C137.981 17.2806 139.603 17.4989 141.234 17.6162C143.614 17.8323 146.013 17.5884 148.301 16.8978C148.657 16.7874 149.007 16.6576 149.349 16.5092C149.603 16.4109 149.851 16.2968 150.091 16.1677L150.532 15.9321C150.585 15.909 150.635 15.8793 150.68 15.8438C150.622 15.8534 150.566 15.8733 150.515 15.9027L150.061 16.1088C149.818 16.2289 149.569 16.3351 149.314 16.4268C148.971 16.565 148.621 16.6829 148.265 16.7801C145.995 17.4212 143.624 17.6329 141.276 17.4043C139.654 17.2685 138.042 17.0385 136.447 16.7153C134.722 16.3738 132.914 15.9145 130.965 15.4964C128.938 15.03 126.882 14.7034 124.811 14.5189C122.574 14.3219 120.319 14.5212 118.151 15.1077C115.976 15.7379 113.933 16.7574 112.121 18.1168C110.467 19.3708 108.894 20.7278 107.411 22.1798C105.974 23.5401 104.625 24.8414 103.289 25.9779C102.06 27.0427 100.74 27.9965 99.3432 28.8279C98.2088 29.5458 97.0102 30.1569 95.7629 30.6534C94.8238 31.0213 93.8271 31.2206 92.8186 31.2422C91.9538 31.2115 91.0958 31.0771 90.263 30.8418Z" fill="white"/>
<path d="M152.01 17.5236C152.498 17.4653 152.99 17.4358 153.482 17.4353C154.822 17.5145 156.12 17.9362 157.251 18.6601C158.916 19.753 160.257 21.2745 161.131 23.0647C162.185 25.2702 163.033 27.5687 163.663 29.9306C164.052 31.179 164.458 32.3979 164.941 33.5344C165.418 34.6249 165.973 35.6797 166.602 36.6906C167.779 38.6103 168.816 40.3886 169.11 42.0668C169.351 42.9545 169.369 43.8878 169.164 44.7843C168.958 45.6808 168.535 46.5129 167.932 47.2075C168.034 47.1274 168.129 47.0387 168.215 46.9425C168.467 46.6717 168.679 46.3663 168.845 46.0357C169.437 44.7866 169.603 43.3778 169.316 42.0256C169.04 40.2944 168.003 38.4925 166.837 36.5434C166.222 35.5411 165.679 34.4962 165.212 33.4166C164.732 32.2472 164.311 31.0543 163.952 29.8423C163.316 27.4625 162.452 25.1495 161.373 22.9351C160.467 21.1099 159.081 19.5666 157.362 18.4716C156.197 17.74 154.857 17.3334 153.482 17.2939C153.112 17.2938 152.744 17.3292 152.381 17.3999C152.253 17.4264 152.128 17.4679 152.01 17.5236Z" fill="white"/>
<path d="M118.995 57.1807C120.616 59.7423 121.533 62.6859 121.654 65.7149C121.775 68.7439 121.096 71.7512 119.684 74.4339C117.058 79.2802 111.923 83.355 112.288 88.8548C112.406 90.692 113.166 92.4291 113.395 94.2546C113.625 96.08 113.118 98.2352 111.475 99.0596C107.772 97.4285 105.298 94.1604 103.997 89.3141C101.836 82.6601 104.127 74.3162 106.653 67.7858" fill="#263238"/>
<path d="M90.7092 86.7556L90.4324 86.7144L90.1027 86.6673L89.6493 86.5377C88.6777 86.1679 87.8711 85.4617 87.3763 84.5474C86.5689 83.1168 86.3353 81.433 86.7226 79.8366C87.0157 78.8615 87.4869 77.9491 88.1123 77.1456C88.8198 76.2469 89.6346 75.4381 90.5384 74.7372C92.411 73.2121 94.7959 71.9991 97.0159 70.209C98.2005 69.3027 99.2136 68.1919 100.007 66.9291C100.408 66.2575 100.715 65.5344 100.92 64.7798C101.112 64.0078 101.228 63.2189 101.267 62.4244C101.344 60.8109 101.203 59.168 101.179 57.5016C101.165 56.6631 101.212 55.8247 101.32 54.9931C101.449 54.1546 101.699 53.3393 102.062 52.5729C102.879 51.0194 104.14 49.7443 105.684 48.9103C107.271 48.0298 108.96 47.3475 110.713 46.8788C112.479 46.3665 114.246 45.9131 115.953 45.2594C117.648 44.6589 119.197 43.7079 120.499 42.4683C121.69 41.2017 122.591 39.6905 123.138 38.0402C123.726 36.462 124.133 34.8663 124.633 33.3294C125.071 31.8436 125.73 30.4322 126.588 29.1427C127.432 27.9532 128.543 26.9789 129.833 26.2985C132.341 24.9854 135.009 24.5791 137.382 24.1845C138.56 23.9902 139.737 23.8312 140.791 23.5957C141.801 23.3796 142.795 23.0943 143.765 22.7419C144.607 22.4258 145.422 22.0439 146.203 21.5995C146.854 21.2154 147.464 20.7655 148.023 20.2569C148.811 19.5598 149.429 18.6917 149.83 17.719C149.941 17.4706 150.028 17.2123 150.089 16.9476C150.118 16.8605 150.141 16.7721 150.16 16.6826C150.16 16.6826 150.054 17.0477 149.772 17.6954C149.352 18.6451 148.726 19.4898 147.94 20.1686C147.383 20.665 146.775 21.1012 146.126 21.47C145.352 21.9057 144.542 22.276 143.706 22.577C142.746 22.9215 141.762 23.197 140.762 23.4014C139.702 23.6251 138.56 23.7782 137.358 23.9902C135.003 24.373 132.294 24.7616 129.703 26.0924C128.378 26.7896 127.233 27.7855 126.359 29.0013C125.485 30.3138 124.81 31.7485 124.356 33.2587C123.85 34.7838 123.438 36.3737 122.861 37.9342C122.32 39.5412 121.441 41.0132 120.282 42.2504C119.005 43.4569 117.491 44.3835 115.836 44.9709C114.169 45.6127 112.397 46.0662 110.618 46.5785C108.843 47.055 107.132 47.7471 105.525 48.6394C103.933 49.5091 102.633 50.8279 101.786 52.4316C101.41 53.2259 101.154 54.0711 101.026 54.9401C100.913 55.789 100.864 56.6453 100.879 57.5016C100.908 59.1798 101.055 60.8168 100.979 62.4067C100.944 63.187 100.834 63.962 100.649 64.7209C100.45 65.4514 100.155 66.1523 99.7717 66.8054C98.9905 68.0446 97.9933 69.1336 96.8274 70.0205C94.6251 71.7871 92.2402 73.0295 90.35 74.5782C89.4618 75.3058 88.665 76.1382 87.9769 77.0573C87.3465 77.8846 86.8734 78.8207 86.5813 79.819C86.1904 81.459 86.4478 83.1867 87.2997 84.6416C87.8167 85.5681 88.6543 86.2738 89.6551 86.6261L90.1145 86.7438H90.456C90.54 86.7532 90.6246 86.7572 90.7092 86.7556Z" fill="white"/>
<path d="M127.388 7.04093C127.388 7.04093 127.759 6.81129 128.43 6.39909C130.803 4.97422 133.501 4.18151 136.268 4.09669C138.274 4.0367 140.273 4.36254 142.156 5.05652C144.031 5.78538 145.745 6.87355 147.203 8.25985C148.4 9.38527 149.417 10.6881 150.218 12.1227C150.76 13.0907 151.198 14.1131 151.525 15.1729C151.755 15.9267 151.855 16.3506 151.878 16.3506C151.882 16.2451 151.868 16.1396 151.837 16.0385C151.789 15.7388 151.724 15.442 151.643 15.1494C151.355 14.0639 150.94 13.0163 150.406 12.0285C149.622 10.5532 148.606 9.21323 147.397 8.05964C145.932 6.62738 144.188 5.51147 142.273 4.78114C140.359 4.05081 138.315 3.72164 136.268 3.81405C134.599 3.87775 132.952 4.2057 131.386 4.78565C130.331 5.17092 129.325 5.67885 128.389 6.29899C128.134 6.46344 127.888 6.64235 127.653 6.83484C127.557 6.89346 127.468 6.96258 127.388 7.04093Z" fill="white"/>
<path d="M151.177 85.3391C151.177 85.3391 159.244 91.1393 156.589 99.548C153.815 108.334 155.411 115.8 153.544 120.688C150.223 129.467 139.8 132.671 131.291 131.67C122.782 130.669 80.3787 125.822 91.4433 96.6627L92.7859 89.4257C93.3204 86.4386 94.977 83.7689 97.4162 81.9636C99.8554 80.1583 102.893 79.354 105.906 79.7156H106.041L109.851 80.2397C110.764 105.448 140.56 109.011 144.164 88.1126C146.407 87.9713 148.768 86.8583 151.177 85.3391Z" fill="#5EA9FF"/>
<path d="M127.247 128.168C123.714 137.472 123.014 153.218 126.723 162.445C130.433 171.672 135.262 180.699 136.233 190.604C136.715 195.802 136.114 201.044 134.469 205.999C132.825 210.954 130.171 215.514 126.676 219.393C124.244 222.048 120.994 225.911 116.878 230.239C113.992 233.272 111.884 235.939 111.884 235.939C104.3 236.581 76.4762 236.092 76.4762 236.092C81.3107 230.534 95.7848 208.387 99.4416 201.998C103.098 195.609 105.536 188.301 105.059 180.952C104.47 171.849 99.5888 163.658 96.8153 154.978C92.7162 142.127 93.1717 128.256 98.1049 115.702L127.247 128.168Z" fill="#5EA9FF"/>
<g opacity="0.3">
<path d="M109.759 80.9771C109.759 80.9771 110.207 94.9976 121.413 99.8615C140.056 107.952 144.172 88.4614 144.172 88.4614C144.131 93.0838 141.528 97.4943 137.777 100.203C134.026 102.912 129.25 103.989 124.64 103.701C120.014 103.315 115.529 101.925 111.496 99.6259C109.359 98.4482 107.845 96.6228 106.432 94.6384C104.766 92.283 102.828 88.3377 103.529 85.5466C104.23 82.7554 106.986 81.6307 109.529 80.2764" fill="black"/>
</g>
<path d="M104.679 82.6553C104.648 82.6996 104.623 82.747 104.602 82.7966L104.402 83.2206C104.169 83.7769 103.991 84.3548 103.872 84.9459C103.465 87.142 103.698 89.4088 104.543 91.4762C105.105 92.907 105.901 94.2343 106.899 95.4039C108.051 96.7341 109.383 97.8974 110.856 98.8604C112.484 99.9189 114.216 100.807 116.026 101.51C117.958 102.282 119.954 102.883 121.991 103.306C126.172 104.172 130.388 104.078 133.921 102.888C137.074 101.862 139.835 99.8903 141.83 97.2411C143.179 95.4703 144.062 93.3887 144.397 91.1877C144.477 90.5926 144.507 89.9918 144.485 89.3917C144.485 89.2033 144.485 89.0443 144.485 88.9265C144.492 88.8737 144.492 88.8203 144.485 88.7675C144.48 88.8204 144.48 88.8736 144.485 88.9265C144.485 89.0502 144.485 89.2033 144.485 89.3917C144.483 89.9833 144.436 90.5739 144.344 91.1582C143.967 93.3236 143.066 95.3636 141.718 97.0997C139.732 99.6922 137.002 101.615 133.892 102.611C130.406 103.789 126.237 103.854 122.115 103C120.105 102.581 118.135 101.99 116.226 101.233C114.438 100.537 112.723 99.663 111.109 98.6249C109.649 97.6859 108.329 96.5461 107.187 95.239C106.195 94.0959 105.399 92.7967 104.832 91.3938C103.985 89.3629 103.724 87.1353 104.078 84.9636C104.21 84.1781 104.411 83.4057 104.679 82.6553Z" fill="#263238"/>
<path d="M103.99 105.546C103.99 105.546 104.02 105.593 104.084 105.663L104.373 105.999C104.638 106.276 104.997 106.723 105.551 107.23C107.019 108.708 108.626 110.041 110.35 111.21C112.9 112.949 115.673 114.336 118.594 115.332C125.816 117.855 133.684 117.828 140.888 115.256C143.813 114.242 146.586 112.836 149.132 111.075C150.854 109.903 152.459 108.568 153.925 107.088C154.455 106.576 154.814 106.129 155.103 105.846L155.391 105.51C155.456 105.434 155.486 105.393 155.48 105.393C155.474 105.393 155.439 105.422 155.368 105.493L155.056 105.805C154.779 106.07 154.408 106.506 153.878 106.982C152.389 108.425 150.773 109.73 149.049 110.881C147.864 111.678 146.633 112.405 145.363 113.059C143.897 113.798 142.385 114.439 140.835 114.979C133.684 117.497 125.892 117.524 118.723 115.056C117.172 114.527 115.658 113.897 114.189 113.171C112.913 112.527 111.676 111.808 110.485 111.016C108.756 109.875 107.134 108.581 105.639 107.147C105.091 106.653 104.714 106.223 104.461 105.97L104.149 105.658L103.99 105.546Z" fill="#263238"/>
<path d="M102.769 106.781C102.853 106.892 102.948 106.994 103.051 107.087L103.917 107.929L104.541 108.518C104.777 108.736 105.048 108.954 105.33 109.196C105.919 109.672 106.508 110.244 107.285 110.791L108.463 111.675C108.869 111.981 109.323 112.263 109.776 112.576C110.677 113.211 111.696 113.8 112.756 114.436C117.433 117.104 122.518 118.98 127.807 119.989C129.032 120.195 130.162 120.413 131.281 120.513C131.829 120.572 132.359 120.655 132.865 120.684L134.331 120.772C135.268 120.849 136.098 120.825 136.858 120.831C137.229 120.831 137.576 120.831 137.894 120.831L138.76 120.784L139.937 120.702C140.078 120.703 140.218 120.687 140.355 120.655C140.216 120.642 140.076 120.642 139.937 120.655H138.76H137.888C137.576 120.655 137.229 120.655 136.858 120.655C136.122 120.655 135.274 120.655 134.349 120.554L132.889 120.443C132.382 120.407 131.858 120.319 131.317 120.26C130.227 120.148 129.073 119.918 127.866 119.706C122.615 118.672 117.562 116.807 112.897 114.183C111.837 113.559 110.818 113.005 109.917 112.358C109.464 112.051 109.011 111.769 108.598 111.48L107.421 110.615C106.655 110.079 106.025 109.519 105.442 109.06C105.16 108.825 104.889 108.613 104.647 108.406L103.999 107.818L103.104 107.017C103 106.928 102.888 106.849 102.769 106.781Z" fill="#263238"/>
<g opacity="0.3">
<path d="M96.5891 120.048C105.922 125.512 115.762 128.586 126.297 131.03L126.05 131.937L125.072 136.595L94.8284 127.432C95.2357 124.931 95.8241 122.463 96.5891 120.048Z" fill="black"/>
</g>
<path d="M92.5987 115.566C92.6526 115.685 92.7219 115.796 92.8048 115.896C92.9461 116.108 93.1699 116.408 93.4643 116.791C94.3151 117.862 95.2874 118.83 96.3615 119.677C97.9745 120.912 99.735 121.943 101.602 122.744C103.675 123.681 105.925 124.788 108.357 125.801C110.653 126.73 112.998 127.534 115.382 128.209C117.566 128.863 119.551 129.387 121.223 129.822C122.895 130.258 124.25 130.558 125.192 130.77L126.281 131C126.407 131.033 126.535 131.055 126.664 131.065C126.545 131.011 126.421 130.97 126.293 130.941L125.221 130.653L121.276 129.61C119.615 129.163 117.643 128.604 115.464 127.938C113.095 127.25 110.762 126.442 108.474 125.518C106.054 124.505 103.799 123.41 101.714 122.485C99.8621 121.705 98.1104 120.704 96.4969 119.506C95.4196 118.682 94.4327 117.746 93.5527 116.715C93.2406 116.35 93.005 116.061 92.846 115.861C92.7729 115.755 92.6901 115.657 92.5987 115.566Z" fill="#263238"/>
<path d="M151.357 108.754C151.292 108.754 151.639 109.89 151.863 111.745C151.991 112.832 152.038 113.926 152.004 115.019C151.925 117.702 151.356 120.348 150.326 122.827C149.909 123.845 149.415 124.829 148.848 125.772C147.883 127.373 147.082 128.251 147.158 128.292C147.365 128.116 147.552 127.918 147.718 127.703C147.93 127.465 148.126 127.213 148.306 126.949C148.524 126.649 148.789 126.307 149.031 125.901C149.627 124.964 150.145 123.979 150.579 122.957C151.656 120.455 152.234 117.766 152.281 115.043C152.303 113.936 152.232 112.829 152.069 111.733C152.022 111.262 151.916 110.85 151.846 110.479C151.783 110.165 151.705 109.855 151.61 109.549C151.551 109.276 151.466 109.01 151.357 108.754Z" fill="#FAFAFA"/>
<path d="M148.732 87.2266C149.6 88.047 150.339 88.994 150.923 90.0354C151.52 91.1825 151.934 92.4165 152.148 93.6921C152.414 95.2479 152.468 96.8327 152.307 98.4029C151.942 101.765 151.005 104.721 150.499 106.888C150.228 107.972 150.034 108.855 149.91 109.467C149.851 109.774 149.816 110.015 149.792 110.18C149.777 110.262 149.777 110.346 149.792 110.427C149.902 110.123 149.987 109.809 150.046 109.491C150.187 108.902 150.411 108.019 150.705 106.941C151.294 104.792 152.242 101.848 152.613 98.4324C152.778 96.8281 152.716 95.2086 152.43 93.6215C152.195 92.3216 151.749 91.0687 151.111 89.9117C150.679 89.1344 150.133 88.4259 149.492 87.8095C149.317 87.643 149.133 87.4877 148.938 87.3443C148.875 87.2963 148.806 87.2567 148.732 87.2266Z" fill="#FAFAFA"/>
<path d="M140.387 114.881C140.56 114.679 140.706 114.455 140.823 114.216C141.192 113.596 141.524 112.955 141.818 112.296C142.264 111.322 142.643 110.318 142.955 109.293C143.335 108.034 143.622 106.749 143.815 105.448C143.995 104.147 144.082 102.834 144.074 101.52C144.059 100.448 143.976 99.3785 143.826 98.317C143.728 97.6014 143.59 96.8918 143.414 96.1913C143.36 95.9318 143.283 95.6776 143.185 95.4316C143.192 95.6981 143.229 95.9628 143.296 96.2207C143.397 96.7153 143.508 97.4455 143.609 98.3464C143.731 99.4 143.792 100.46 143.791 101.52C143.781 102.82 143.688 104.118 143.514 105.407C143.319 106.691 143.042 107.962 142.684 109.211C142.387 110.23 142.031 111.23 141.618 112.208C141.265 113.044 140.953 113.71 140.717 114.157C140.584 114.387 140.474 114.63 140.387 114.881Z" fill="#FAFAFA"/>
<path d="M135.736 131.914C135.947 131.79 136.144 131.644 136.324 131.478C136.564 131.296 136.792 131.099 137.008 130.889C137.261 130.654 137.596 130.401 137.861 130.077C138.574 129.348 139.224 128.56 139.805 127.721C140.507 126.677 141.114 125.571 141.618 124.418C142.1 123.255 142.474 122.051 142.737 120.82C142.944 119.815 143.064 118.795 143.096 117.77C143.126 117.334 143.096 116.94 143.096 116.592C143.09 116.295 143.069 115.998 143.032 115.703C143.023 115.45 142.983 115.199 142.914 114.955C142.855 114.955 142.984 116.033 142.878 117.758C142.818 118.768 142.678 119.773 142.46 120.761C142.186 121.968 141.809 123.15 141.336 124.294C140.838 125.429 140.247 126.52 139.569 127.556C139.009 128.398 138.385 129.196 137.702 129.941C136.56 131.231 135.671 131.867 135.736 131.914Z" fill="#FAFAFA"/>
<path d="M126.415 130.196C127.259 128.651 128.014 127.059 128.676 125.427C129.433 123.834 130.095 122.198 130.66 120.527C129.815 122.074 129.06 123.669 128.399 125.303C127.639 126.893 126.977 128.527 126.415 130.196Z" fill="#FAFAFA"/>
<path d="M127.077 119.616C127.303 119.246 127.483 118.851 127.613 118.438C127.89 117.779 128.202 117.26 128.102 117.213C128.002 117.166 127.619 117.62 127.331 118.32C127.109 118.714 127.02 119.168 127.077 119.616Z" fill="#FAFAFA"/>
<path d="M134.84 102.966C134.787 102.966 135.075 103.761 135.193 105.068C135.316 106.774 135.116 108.488 134.604 110.12C134.084 111.756 133.428 113.346 132.643 114.872C132.297 115.499 131.992 116.148 131.731 116.816C131.862 116.673 131.971 116.513 132.055 116.339C132.249 116.021 132.514 115.555 132.832 114.972C133.682 113.46 134.375 111.863 134.899 110.209C135.422 108.541 135.593 106.782 135.399 105.044C135.334 104.521 135.219 104.004 135.058 103.502C135.012 103.313 134.938 103.133 134.84 102.966Z" fill="#FAFAFA"/>
<path d="M117.506 114.454C117.742 113.901 117.938 113.332 118.095 112.752C118.454 111.704 118.99 110.261 119.685 108.718C120.38 107.175 121.122 105.833 121.675 104.867C122.001 104.361 122.296 103.836 122.559 103.295C122.155 103.744 121.798 104.234 121.493 104.755C120.708 105.984 120.012 107.267 119.408 108.595C118.804 109.921 118.297 111.288 117.889 112.687C117.699 113.261 117.571 113.853 117.506 114.454Z" fill="#FAFAFA"/>
<path d="M113.754 115.335C113.837 115.335 113.99 114.941 114.272 114.493C114.555 114.046 114.861 113.71 114.79 113.639C114.72 113.569 114.319 113.828 114.013 114.328C113.707 114.829 113.672 115.3 113.754 115.335Z" fill="#FAFAFA"/>
<path d="M111.739 126.477C111.924 125.981 112.08 125.473 112.204 124.958C112.564 123.747 113.019 122.565 113.564 121.425C114.118 120.284 114.76 119.187 115.484 118.145C115.808 117.728 116.107 117.291 116.379 116.838C115.971 117.181 115.61 117.577 115.307 118.016C113.73 120.058 112.601 122.409 111.992 124.917C111.839 125.424 111.754 125.948 111.739 126.477Z" fill="#FAFAFA"/>
<path d="M104.926 107.336C105.2 106.929 105.434 106.497 105.627 106.046C106.039 105.245 106.616 104.144 107.311 102.954C108.006 101.765 108.683 100.729 109.184 99.9749C109.481 99.5862 109.742 99.1702 109.961 98.7324C109.6 99.0666 109.28 99.4422 109.007 99.8512C108.297 100.794 107.642 101.777 107.046 102.795C106.446 103.814 105.907 104.868 105.433 105.952C105.21 106.392 105.041 106.856 104.926 107.336Z" fill="#FAFAFA"/>
<path d="M106.122 109.798C106.199 109.839 106.417 109.592 106.617 109.21C106.817 108.827 106.923 108.539 106.846 108.498C106.77 108.456 106.552 108.709 106.352 109.057C106.152 109.404 106.052 109.757 106.122 109.798Z" fill="#FAFAFA"/>
<path d="M99.8536 120.082C99.9007 120.082 99.9949 119.382 100.225 118.257C100.531 116.794 100.95 115.356 101.479 113.958C102.018 112.566 102.668 111.219 103.422 109.931C104.011 108.935 104.405 108.347 104.364 108.317C104.323 108.288 104.229 108.441 104.029 108.694C103.747 109.053 103.483 109.427 103.24 109.813C101.603 112.365 100.505 115.224 100.013 118.216C99.9242 118.804 99.8713 119.252 99.8536 119.576C99.8231 119.743 99.8231 119.915 99.8536 120.082Z" fill="#FAFAFA"/>
<path d="M90.6667 113.454C90.7241 113.378 90.7715 113.295 90.808 113.207C90.8905 113.036 91.0141 112.789 91.1555 112.465C91.4499 111.817 91.8562 110.875 92.3332 109.697C93.2989 107.342 94.4766 104.044 96.0194 100.499C97.2952 97.4556 98.9238 94.5721 100.872 91.908C101.47 91.1085 102.111 90.3419 102.791 89.6115C103.052 89.3532 103.298 89.0799 103.527 88.793C103.446 88.8426 103.371 88.9019 103.304 88.9696C103.168 89.0992 102.95 89.2758 102.715 89.5585C101.995 90.2548 101.32 90.9963 100.695 91.7784C98.6838 94.422 97.0177 97.311 95.7368 100.376C94.1881 103.909 93.0398 107.253 92.133 109.615C91.6854 110.792 91.3203 111.711 91.0495 112.418C90.895 112.753 90.7671 113.099 90.6667 113.454Z" fill="#FAFAFA"/>
<path d="M97.2841 82.4998C97.2841 82.5469 97.6904 82.3643 98.344 82.2112C99.1902 82.013 100.068 81.9909 100.923 82.1464C101.779 82.3059 102.594 82.6364 103.32 83.1181C103.873 83.489 104.168 83.7952 104.203 83.7599C104.02 83.4316 103.762 83.1512 103.449 82.9414C102.725 82.3855 101.879 82.0101 100.981 81.8463C100.083 81.6824 99.1589 81.7349 98.2851 81.9992C97.9177 82.0878 97.5753 82.259 97.2841 82.4998Z" fill="#FAFAFA"/>
<path d="M95.3564 131.232C95.3564 131.232 95.4447 131.285 95.6273 131.356L96.434 131.662C97.1347 131.921 98.1535 132.281 99.4195 132.71C101.946 133.582 105.449 134.736 109.342 135.949C113.234 137.162 116.773 138.199 119.352 138.893C120.642 139.253 121.708 139.535 122.408 139.724L123.245 139.93C123.339 139.964 123.439 139.981 123.539 139.983C123.45 139.933 123.355 139.896 123.256 139.871L122.438 139.606L119.417 138.687L109.436 135.631L99.4902 132.481L96.4811 131.527L95.6567 131.28C95.5588 131.252 95.458 131.236 95.3564 131.232Z" fill="#FAFAFA"/>
<path d="M94.9032 141.569C94.9953 141.618 95.0948 141.652 95.1976 141.669L96.0515 141.899L99.1665 142.712C101.822 143.401 105.479 144.396 109.483 145.621C113.488 146.845 117.074 148.064 119.659 148.977L122.756 150.078L123.586 150.367C123.683 150.405 123.784 150.431 123.887 150.443C123.8 150.388 123.707 150.343 123.61 150.308L122.797 149.966C122.085 149.672 121.031 149.266 119.765 148.789C117.191 147.823 113.611 146.575 109.601 145.344C105.591 144.113 101.946 143.153 99.249 142.517C97.9123 142.199 96.8288 141.929 96.075 141.799L95.2094 141.628C95.1104 141.595 95.0074 141.575 94.9032 141.569Z" fill="#FAFAFA"/>
<path d="M97.139 153.44C97.2324 153.489 97.3312 153.527 97.4335 153.552L98.2991 153.8L101.491 154.683C104.182 155.431 107.892 156.497 111.961 157.757C116.03 159.017 119.686 160.253 122.33 161.16L125.457 162.238L126.311 162.52C126.408 162.563 126.512 162.591 126.617 162.603C126.53 162.545 126.435 162.499 126.335 162.467L125.498 162.126C124.774 161.837 123.732 161.437 122.401 160.948C119.775 159.988 116.124 158.728 112.049 157.456C107.974 156.184 104.252 155.166 101.544 154.471C100.189 154.118 99.094 153.853 98.3285 153.676L97.4511 153.482C97.3488 153.457 97.2442 153.443 97.139 153.44Z" fill="#FAFAFA"/>
<path d="M102.707 167.56C102.805 167.61 102.91 167.648 103.019 167.671L103.937 167.931L107.317 168.879C110.162 169.691 114.077 170.887 118.341 172.412C122.604 173.937 126.373 175.397 129.099 176.575L132.326 177.959L133.204 178.33C133.302 178.381 133.407 178.419 133.516 178.441C133.425 178.377 133.329 178.321 133.227 178.277L132.373 177.853C131.631 177.482 130.542 176.975 129.188 176.375C126.479 175.167 122.71 173.601 118.417 172.094C114.125 170.586 110.215 169.42 107.353 168.661C105.916 168.284 104.75 167.995 103.943 167.813L103.013 167.607C102.913 167.578 102.81 167.562 102.707 167.56Z" fill="#FAFAFA"/>
<path d="M105.121 182.981C105.218 183.045 105.323 183.096 105.433 183.135L106.345 183.511L109.708 184.848L120.796 189.276C125.124 191.043 129.04 192.644 131.825 193.863C133.221 194.452 134.357 194.97 135.135 195.324L136.036 195.724C136.137 195.779 136.246 195.819 136.359 195.842C136.266 195.772 136.165 195.713 136.059 195.665L135.182 195.218C134.422 194.829 133.297 194.305 131.914 193.663C129.128 192.397 125.242 190.719 120.914 188.988C116.586 187.256 112.67 185.72 109.784 184.648L106.387 183.4L105.456 183.076C105.347 183.034 105.235 183.002 105.121 182.981Z" fill="#FAFAFA"/>
<path d="M101.996 196.97C102.091 197.032 102.194 197.082 102.302 197.117L103.203 197.488L106.524 198.813C109.327 199.938 113.173 201.545 117.365 203.447C121.558 205.349 125.303 207.198 127.965 208.57L131.15 210.195L132.016 210.631C132.113 210.691 132.218 210.737 132.328 210.766C132.241 210.694 132.146 210.631 132.045 210.578L131.203 210.089C130.473 209.671 129.402 209.082 128.065 208.376C125.397 206.957 121.664 205.078 117.465 203.17C113.267 201.262 109.398 199.684 106.572 198.613C105.164 198.071 104.016 197.653 103.215 197.376L102.296 197.058C102.199 197.022 102.098 196.992 101.996 196.97Z" fill="#FAFAFA"/>
<path d="M94.4509 208.885C94.4155 208.962 100.563 212.136 108.189 215.951C115.815 219.767 122.027 222.847 122.062 222.77C122.098 222.694 115.95 219.52 108.324 215.704C100.699 211.888 94.5156 208.809 94.4509 208.885Z" fill="#FAFAFA"/>
<path d="M106.305 142.209C106.316 142.348 106.337 142.486 106.369 142.621C106.434 142.916 106.517 143.298 106.617 143.799C106.717 144.299 106.864 144.924 107.058 145.63C107.253 146.337 107.441 147.149 107.724 148.033C108.006 148.916 108.313 149.888 108.648 150.906C108.984 151.925 109.414 153.02 109.826 154.163C110.819 156.619 111.937 159.023 113.177 161.364C114.436 163.697 115.811 165.965 117.299 168.16C118.005 169.161 118.665 170.12 119.33 170.974C119.995 171.828 120.62 172.629 121.209 173.33C121.797 174.03 122.351 174.666 122.834 175.22C123.317 175.773 123.746 176.233 124.112 176.604L124.942 177.452C125.03 177.558 125.131 177.652 125.242 177.734C125.167 177.617 125.081 177.509 124.983 177.41L124.2 176.521C123.852 176.138 123.429 175.673 122.963 175.108C122.498 174.543 121.939 173.93 121.379 173.194C120.82 172.458 120.202 171.687 119.536 170.809C118.871 169.932 118.229 168.99 117.534 167.989C116.18 165.969 114.778 163.684 113.447 161.211C112.117 158.738 111.015 156.294 110.085 154.045C109.643 152.908 109.208 151.837 108.86 150.812C108.513 149.787 108.177 148.834 107.9 147.956C107.624 147.079 107.4 146.278 107.194 145.571C106.988 144.865 106.829 144.258 106.705 143.758L106.405 142.609C106.383 142.473 106.35 142.339 106.305 142.209Z" fill="#263238"/>
<path d="M87.1678 221.198C87.2518 221.257 87.3428 221.304 87.4387 221.34L88.2396 221.693L91.1838 222.971C93.6747 224.042 97.0724 225.562 100.924 227.134C104.187 228.499 107.518 229.694 110.905 230.714C112.206 231.097 113.26 231.374 114.014 231.538L114.868 231.721C114.965 231.751 115.066 231.767 115.168 231.768C115.078 231.717 114.981 231.682 114.879 231.662L114.043 231.421C113.313 231.226 112.277 230.914 110.969 230.508C108.384 229.701 104.869 228.423 101.041 226.851L91.2663 222.77C90.012 222.258 88.9933 221.846 88.2808 221.593L87.4623 221.292C87.3697 221.246 87.2703 221.214 87.1678 221.198Z" fill="#FAFAFA"/>
<path d="M81.2337 231.071C81.398 231.198 81.5782 231.303 81.7695 231.383C82.1229 231.572 82.6411 231.825 83.2888 232.131C84.5843 232.72 86.398 233.521 88.4354 234.298C90.4728 235.075 92.3572 235.694 93.7351 236.1C94.4182 236.306 94.9776 236.459 95.3604 236.553C95.551 236.618 95.7487 236.659 95.9492 236.677C95.7655 236.57 95.5671 236.491 95.3604 236.442L93.7645 235.894C92.4102 235.435 90.5494 234.787 88.5179 234.01C86.4863 233.232 84.6608 232.485 83.3477 231.931L81.7872 231.277C81.6133 231.183 81.427 231.114 81.2337 231.071Z" fill="#FAFAFA"/>
<g opacity="0.3">
<path d="M86.586 220.598C90.4431 215.063 96.9322 211.63 103.628 210.817C110.323 210.005 117.171 211.642 123.183 214.733C124.815 215.575 127.099 217.289 126.911 219.12L122.094 224.526C112.042 228.448 101.118 229.587 90.4725 227.823C88.3585 227.47 85.8794 226.646 85.3789 224.561C85.0315 223.177 85.7734 221.764 86.586 220.598Z" fill="black"/>
</g>
<path d="M139.329 220.269C139.329 220.269 147.903 218.383 151.547 217.633C152.74 217.382 153.783 216.718 154.955 216.418C160.671 214.932 167.708 211.231 169.301 209.673C172.073 206.966 174.11 211.138 171.352 214.56C168.594 217.983 166.486 219.161 166.486 219.161L178.196 222.226C178.803 222.385 179.326 222.768 179.661 223.298L188.699 237.587C189.111 238.148 189.304 238.84 189.243 239.533C189.181 240.227 188.868 240.873 188.363 241.352C188.119 241.61 187.787 241.767 187.433 241.793C187.079 241.82 186.728 241.714 186.448 241.495L187.613 243.439C189.535 246.647 184.827 249.797 182.712 246.711L182.662 246.561C182.662 249.011 181.376 250.24 178.432 249.912C178.432 249.912 177.389 254.463 173.924 252.541C171.066 250.955 163.386 242.01 163.386 242.01C163.386 242.01 136.236 242.624 134.871 238.623L139.329 220.269Z" fill="#FFBE9D"/>
<path d="M166.036 225.308C166.11 225.365 166.192 225.411 166.279 225.444C166.509 225.562 166.748 225.662 166.994 225.744C167.924 226.043 168.881 226.254 169.851 226.372C171.29 226.517 172.708 226.819 174.081 227.273C175.61 227.816 176.882 229.116 178.003 230.623C180.283 233.638 182.355 236.339 183.876 238.318L185.684 240.626C185.896 240.919 186.135 241.192 186.398 241.44C186.229 241.124 186.033 240.823 185.813 240.54L184.091 238.161C182.662 236.16 180.583 233.417 178.304 230.395C177.753 229.643 177.131 228.947 176.446 228.316C175.794 227.722 175.035 227.259 174.21 226.951C172.818 226.504 171.38 226.221 169.923 226.108C168.959 226.009 168.004 225.839 167.065 225.601C166.401 225.429 166.05 225.272 166.036 225.308Z" fill="#EB946E"/>
<path d="M163.572 230.76C164.825 230.735 166.073 230.904 167.273 231.26C168.563 231.677 169.782 232.287 170.889 233.068C172.239 234.041 173.482 235.155 174.597 236.39C176.648 238.629 178.557 240.994 180.312 243.471C180.991 244.421 181.52 245.207 181.884 245.743C182.06 246.034 182.26 246.309 182.484 246.564C182.356 246.252 182.198 245.953 182.013 245.671C181.677 245.1 181.184 244.299 180.534 243.321C178.83 240.8 176.938 238.412 174.875 236.176C173.746 234.917 172.476 233.793 171.089 232.825C169.95 232.034 168.69 231.434 167.359 231.046C166.461 230.787 165.529 230.662 164.594 230.675C164.343 230.682 164.093 230.703 163.844 230.739C163.665 230.725 163.572 230.746 163.572 230.76Z" fill="#EB946E"/>
<path d="M155.225 218.819C155.766 218.961 156.322 219.041 156.882 219.055C157.911 219.14 159.34 219.226 160.912 219.255C162.484 219.283 163.913 219.255 164.949 219.255C165.508 219.268 166.066 219.215 166.613 219.098C166.062 218.997 165.501 218.961 164.941 218.99L160.919 218.919L156.897 218.826C156.341 218.767 155.781 218.765 155.225 218.819Z" fill="#EB946E"/>
<path d="M166.847 237.558C166.847 237.615 167.698 238.001 168.955 238.851C170.583 239.979 172.056 241.317 173.335 242.83C174.614 244.35 175.807 245.941 176.907 247.596C177.334 248.301 177.812 248.974 178.336 249.61C178.266 249.397 178.165 249.195 178.036 249.01C177.829 248.639 177.514 248.103 177.107 247.453C176.065 245.743 174.892 244.117 173.599 242.587C172.304 241.046 170.781 239.711 169.084 238.629C168.567 238.306 168.027 238.022 167.469 237.779C167.275 237.672 167.065 237.598 166.847 237.558Z" fill="#EB946E"/>
<path d="M92.6029 128.35L71.9834 193.63L128.255 211.206C129.46 211.578 130.615 212.099 131.691 212.756L135.199 214.9L140.258 215.836L134.392 242.564L128.483 241.092C122.568 246.322 82.3218 238.434 53.8503 235.04C53.8503 235.04 23.5284 232.247 28.451 206.619C31.559 190.437 55.3935 126.657 55.3935 126.657L92.6029 128.35Z" fill="white"/>
<path d="M128.011 240.449C128.102 240.112 128.162 239.768 128.19 239.42C128.268 238.749 128.404 237.791 128.575 236.605C129.493 230.424 131.057 224.356 133.241 218.501C133.662 217.379 134.012 216.472 134.255 215.85C134.401 215.533 134.518 215.203 134.605 214.864C134.417 215.158 134.257 215.469 134.127 215.793C133.834 216.4 133.448 217.293 132.998 218.408C130.67 224.231 129.107 230.331 128.347 236.555C128.204 237.748 128.111 238.699 128.068 239.413C128.02 239.756 128 240.103 128.011 240.449Z" fill="#263238"/>
<path d="M59.6222 203.199C59.6403 203.129 59.6522 203.057 59.6579 202.985L59.7437 202.356C59.8988 201.565 60.1607 200.798 60.5225 200.077C61.1077 198.941 61.8807 197.912 62.8087 197.034C64.0112 195.849 65.4534 194.935 67.0384 194.354C68.9909 193.735 71.0874 193.735 73.0399 194.354C75.1833 194.926 77.3267 195.955 79.6845 196.798C84.4499 198.348 89.737 199.841 95.2884 201.406C106.398 204.521 116.465 207.308 123.617 209.744C126.457 210.647 129.231 211.745 131.919 213.03C132.641 213.39 133.327 213.815 133.97 214.302C134.405 214.652 134.584 214.881 134.605 214.866C134.436 214.637 134.239 214.428 134.02 214.245C133.391 213.726 132.708 213.276 131.983 212.902C129.312 211.554 126.545 210.407 123.703 209.472C116.558 206.972 106.498 204.142 95.3884 201.027C89.8442 199.463 84.5428 197.977 79.7987 196.455C77.4553 195.626 75.2905 194.604 73.1185 194.033C71.1055 193.417 68.9509 193.442 66.9527 194.104C65.3396 194.713 63.8772 195.664 62.6659 196.891C61.7369 197.793 60.9707 198.85 60.401 200.013C60.0544 200.754 59.8139 201.541 59.6865 202.349C59.6865 202.628 59.6508 202.842 59.6437 202.985C59.627 203.055 59.6198 203.127 59.6222 203.199Z" fill="#263238"/>
<path d="M71.9786 193.637C72.0723 193.461 72.1511 193.276 72.2144 193.087C72.3573 192.687 72.5574 192.151 72.8074 191.479C73.3218 190.05 74.0292 188.043 74.8937 185.528C76.6155 180.491 78.8804 173.489 81.3239 165.745C83.7673 158 85.9893 150.991 87.6469 145.94C88.4685 143.432 89.1401 141.396 89.6188 139.953L90.1475 138.324C90.2158 138.136 90.2683 137.942 90.3047 137.745C90.218 137.924 90.1417 138.108 90.0761 138.295L89.4831 139.903C88.9686 141.332 88.2542 143.332 87.3968 145.854C85.675 150.855 83.4101 157.886 80.9666 165.638C78.5232 173.389 76.3012 180.384 74.6436 185.442C73.8148 187.943 73.1504 189.979 72.6717 191.429C72.4502 192.108 72.2716 192.651 72.143 193.058C72.0732 193.247 72.0182 193.44 71.9786 193.637Z" fill="#263238"/>
<path d="M129.111 233.045C130.13 233.775 131.216 234.406 132.354 234.931C133.437 235.562 134.582 236.082 135.77 236.481C134.75 235.752 133.664 235.12 132.526 234.595C131.443 233.964 130.299 233.445 129.111 233.045Z" fill="#263238"/>
<path d="M130.49 227.365C130.49 227.472 132.062 227.78 133.941 228.423C135.82 229.066 137.27 229.794 137.32 229.694C136.342 228.96 135.238 228.41 134.062 228.073C132.925 227.618 131.714 227.378 130.49 227.365Z" fill="#263238"/>
<path d="M131.762 222.489C131.762 222.597 133.341 222.589 135.22 223.011C137.099 223.432 138.528 224.097 138.578 223.99C136.549 222.715 134.139 222.184 131.762 222.489Z" fill="#263238"/>
<path d="M134.136 218.882C135.101 218.807 136.07 218.793 137.037 218.839C137.989 219.017 138.929 219.256 139.852 219.554C139.032 218.969 138.078 218.603 137.078 218.489C136.078 218.375 135.065 218.518 134.136 218.904V218.882Z" fill="#263238"/>
<path d="M46.3697 150.513C46.4488 150.49 46.5253 150.459 46.5983 150.42L47.2342 150.106L49.6134 148.877L58.0655 144.39L57.8369 144.304L62.1237 156.036C62.8381 157.95 63.5526 159.815 64.1813 161.573L64.2385 161.723L64.3957 161.687L78.1992 158.579L82.2287 157.636L83.3505 157.393C83.4767 157.372 83.5994 157.334 83.7148 157.279C83.587 157.285 83.4602 157.304 83.3362 157.336L82.243 157.543L78.192 158.379L64.36 161.366L64.5671 161.48L62.5166 155.936L58.1513 144.219L58.087 144.04L57.9226 144.133L49.5419 148.705L47.1985 150.013L46.584 150.37C46.434 150.456 46.3697 150.499 46.3697 150.513Z" fill="#FAFAFA"/>
<path d="M53.7178 133.821C53.9979 133.34 54.3284 132.89 54.7037 132.478C55.778 131.403 57.2213 130.777 58.7404 130.728C59.7735 130.663 60.8021 130.912 61.6912 131.442C62.6877 132.093 63.4978 132.991 64.0418 134.05C64.6571 135.234 65.2034 136.453 65.6779 137.701C66.2027 139.071 66.9753 140.333 67.9571 141.423C68.4848 141.969 69.123 142.395 69.829 142.673C70.5128 142.935 71.2403 143.063 71.9724 143.052C73.4013 143.052 74.7231 142.845 76.002 142.752L82.7822 142.116L87.3477 141.659L88.5908 141.516C88.7355 141.504 88.8789 141.481 89.0195 141.444C88.8749 141.426 88.7284 141.426 88.5837 141.444L87.3405 141.516L82.7608 141.859L75.9734 142.409C74.6945 142.495 73.3441 142.68 71.9795 142.688C71.2895 142.692 70.6045 142.571 69.9576 142.33C69.3032 142.066 68.7118 141.666 68.2214 141.159C67.2773 140.11 66.5295 138.9 66.0137 137.586C65.5282 136.331 64.97 135.105 64.3419 133.914C63.7594 132.813 62.9031 131.88 61.8555 131.206C60.9106 130.659 59.8223 130.41 58.7333 130.492C57.1573 130.566 55.6727 131.253 54.5965 132.407C54.3111 132.717 54.0706 133.066 53.8821 133.443C53.8117 133.561 53.7565 133.689 53.7178 133.821Z" fill="#FAFAFA"/>
<path d="M48.9629 234.15L49.1629 234.193L49.7631 234.293L52.0708 234.643L60.5658 235.901C67.7104 236.965 77.6201 238.544 88.58 240.037C94.0671 240.752 99.297 241.538 104.048 242.038C108.272 242.52 112.522 242.735 116.773 242.681C119.647 242.632 122.513 242.362 125.346 241.873C126.347 241.723 127.111 241.523 127.633 241.416L128.226 241.28L128.426 241.223C128.357 241.214 128.287 241.214 128.219 241.223L127.618 241.323C127.09 241.402 126.325 241.581 125.318 241.709C122.495 242.151 119.644 242.389 116.787 242.424C112.547 242.443 108.309 242.205 104.098 241.709C99.3399 241.188 94.1314 240.409 88.6443 239.68C77.6915 238.187 67.7962 236.644 60.6158 235.643C57.0435 235.143 54.1142 234.765 52.1065 234.507L49.7916 234.229L49.1843 234.164C49.1119 234.147 49.037 234.142 48.9629 234.15Z" fill="#263238"/>
<path d="M176.975 88.3745C174.867 86.0191 176.209 83.2221 181.586 84.759C181.168 84.6471 178.1 83.8051 178.606 82.1857C179.142 80.4192 182.428 79.9952 182.428 79.9952L186.579 79.7714C186.579 79.7714 187.81 70.4853 189.388 70.4971C190.966 70.5089 192.185 72.0575 192.444 74.513L193.622 74.8192C195.719 75.3558 197.666 76.3627 199.316 77.7635L200.029 78.3523C200.327 78.5941 200.547 78.9192 200.66 79.2861C200.773 79.6531 200.775 80.0454 200.665 80.4133L198.598 87.3264C198.598 87.3264 199.322 91.9371 198.704 93.1678C198.085 94.3985 197.932 94.7871 197.932 94.7871C197.932 94.7871 197.991 97.9551 196.625 99.1446C195.923 99.7368 195.262 100.376 194.646 101.058C194.646 101.058 194.558 103.278 193.392 104.591C192.109 106.028 189.606 109.302 189.606 109.302L176.722 111.399L175.279 100.481L176.975 88.3745Z" fill="#FFBE9D"/>
<path d="M192.855 74.5561C192.632 74.4477 192.397 74.3667 192.154 74.3146C191.5 74.11 190.812 74.036 190.129 74.0967C189.647 74.1624 189.191 74.351 188.804 74.6444C188.573 74.8134 188.381 75.0303 188.242 75.2804C188.103 75.5304 188.019 75.8076 187.997 76.0929C187.997 76.407 188.061 76.7177 188.183 77.007C188.305 77.2962 188.484 77.558 188.709 77.7771C189.176 78.2203 189.694 78.6058 190.252 78.9253C192.077 80.1854 194.056 81.2065 196.141 81.9638C196.783 82.175 197.443 82.3249 198.114 82.4113C198.358 82.4543 198.608 82.4662 198.855 82.4466C197.961 82.2709 197.078 82.0408 196.212 81.7577C194.159 80.9511 192.206 79.914 190.388 78.6662C189.85 78.3605 189.35 77.9929 188.898 77.571C188.698 77.3815 188.537 77.1545 188.425 76.9029C188.313 76.6513 188.252 76.3801 188.244 76.1047C188.264 75.8581 188.336 75.6186 188.455 75.4015C188.574 75.1844 188.737 74.9947 188.933 74.8446C189.274 74.5705 189.68 74.388 190.111 74.3146C190.766 74.2337 191.43 74.2716 192.072 74.4265C192.328 74.4958 192.59 74.5392 192.855 74.5561Z" fill="#EB946E"/>
<path d="M185.14 79.8848C185.338 79.9751 185.548 80.0365 185.764 80.0673C186.164 80.1615 186.753 80.297 187.477 80.4501L190.033 80.9741C190.993 81.1802 192.065 81.3451 193.148 81.6454C194.171 81.8693 195.114 82.3634 195.88 83.0763C196.479 83.69 196.973 84.3983 197.341 85.1726C197.977 86.5034 198.271 87.3808 198.324 87.3631C198.296 87.147 198.241 86.9352 198.159 86.7331C197.984 86.1696 197.776 85.6171 197.535 85.0784C197.183 84.2651 196.69 83.5197 196.081 82.8761C195.706 82.5023 195.277 82.1867 194.809 81.9398C194.304 81.6896 193.776 81.4923 193.231 81.351C192.124 81.0507 191.058 80.8917 190.092 80.7033L187.519 80.244C186.789 80.1144 186.194 80.0143 185.752 79.9554C185.551 79.9113 185.346 79.8876 185.14 79.8848Z" fill="#EB946E"/>
<path d="M180.884 84.5576C181.096 84.6609 181.319 84.738 181.549 84.7873C181.991 84.9168 182.627 85.0876 183.416 85.276L186.19 85.9355L187.821 86.3418C188.402 86.499 188.992 86.6209 189.587 86.7069C190.175 86.778 190.754 86.9123 191.313 87.1073C191.824 87.3098 192.306 87.5813 192.744 87.9141C193.496 88.4781 194.18 89.1283 194.781 89.8514C195.195 90.3317 195.551 90.8595 195.841 91.4236C196.035 91.8299 196.094 92.0772 196.124 92.0713C196.153 92.0654 196.124 92.0066 196.124 91.8829C196.086 91.7103 196.035 91.5409 195.971 91.3765C195.713 90.7807 195.376 90.2223 194.969 89.7159C194.379 88.9557 193.694 88.2731 192.932 87.6844C192.477 87.3323 191.976 87.045 191.442 86.8306C190.873 86.6188 190.279 86.4764 189.676 86.4066C189.08 86.3232 188.49 86.2032 187.909 86.0474C187.34 85.9061 186.792 85.7765 186.266 85.6588L183.475 85.0699L181.591 84.6813C181.361 84.6114 181.124 84.5699 180.884 84.5576Z" fill="#EB946E"/>
<path d="M176.974 88.376C177.149 88.584 177.346 88.7717 177.563 88.9354C178.131 89.4013 178.74 89.8152 179.383 90.172C180.339 90.6974 181.342 91.1311 182.38 91.4674C183.645 91.8743 184.93 92.2144 186.231 92.4861C186.914 92.6392 187.615 92.7629 188.233 92.9101C188.827 93.0836 189.37 93.4011 189.811 93.8346C190.253 94.2468 190.659 94.6649 191.03 95.0535C191.385 95.4047 191.704 95.7892 191.984 96.2018C192.417 96.7819 192.796 97.4009 193.115 98.0508C193.333 98.5159 193.415 98.7927 193.439 98.7868C193.462 98.7809 193.439 98.7103 193.439 98.5807C193.39 98.3808 193.329 98.1842 193.256 97.9919C192.974 97.312 192.617 96.6661 192.19 96.0663C191.917 95.6426 191.602 95.2479 191.248 94.8886C190.883 94.4882 190.483 94.0642 190.035 93.6344C189.565 93.1656 188.987 92.8198 188.351 92.6275C187.68 92.4626 187.02 92.3448 186.325 92.1917C183.956 91.774 181.652 91.0412 179.477 90.013C178.607 89.524 177.771 88.9771 176.974 88.376Z" fill="#EB946E"/>
<path d="M193.422 98.7863C193.374 98.6849 193.317 98.5883 193.251 98.4977C193.127 98.3093 192.939 98.0384 192.662 97.7087C192.352 97.2954 192.001 96.9147 191.614 96.5722C191.084 96.129 190.488 95.7714 189.848 95.5123C188.458 94.9234 186.797 94.2816 184.954 93.5455L182.057 92.3973C181.535 92.1726 180.98 92.0353 180.414 91.9909C180.111 91.9673 179.807 92.0075 179.521 92.109C179.235 92.2104 178.974 92.3708 178.753 92.5798C178.533 92.8124 178.393 93.1096 178.353 93.4277C178.319 93.7347 178.365 94.0454 178.488 94.3287C178.737 94.8522 179.124 95.298 179.607 95.6183C180.502 96.2424 181.374 96.7959 182.228 97.3259C182.646 97.5968 183.046 97.8618 183.453 98.1091L184.63 98.7804C185.402 99.2043 186.12 99.5989 186.756 99.9934C187.757 100.619 188.695 101.339 189.559 102.143C189.865 102.425 190.101 102.655 190.254 102.808C190.328 102.895 190.413 102.973 190.507 103.038C190.448 102.941 190.378 102.85 190.301 102.767C190.16 102.602 189.942 102.355 189.641 102.054C188.801 101.21 187.873 100.458 186.874 99.8109C186.238 99.3987 185.519 98.9924 184.754 98.5566L183.576 97.8735C183.176 97.6262 182.775 97.3554 182.363 97.0904C181.539 96.5369 180.65 95.9892 179.778 95.3768C179.337 95.0848 178.985 94.6775 178.759 94.1991C178.648 93.9691 178.608 93.7109 178.645 93.4579C178.681 93.2049 178.793 92.9688 178.965 92.78C179.154 92.5986 179.378 92.4583 179.623 92.3681C179.868 92.2779 180.13 92.2397 180.39 92.2559C180.922 92.3009 181.443 92.4301 181.933 92.6387L184.836 93.7693L189.747 95.6771C190.37 95.9171 190.951 96.2507 191.473 96.6664C191.859 96.9936 192.216 97.3542 192.539 97.744C192.809 98.0679 193.004 98.3328 193.127 98.4977C193.215 98.6045 193.313 98.7012 193.422 98.7863Z" fill="#EB946E"/>
<path d="M177.064 99.5515C177.837 98.9997 178.647 98.5038 179.49 98.0676C180.376 97.725 181.285 97.4475 182.211 97.2373C181.232 97.195 180.257 97.3823 179.363 97.7841C178.47 98.1859 177.682 98.7912 177.064 99.5515Z" fill="#EB946E"/>
<path opacity="0.4" d="M427.534 255.336V258.207C403.712 258.207 373.884 258.685 367.634 260.539C326.043 272.499 326.781 298.812 311.966 298.812C300.498 298.812 278.349 259.642 258.563 259.642C238.777 259.642 233.363 273.217 219.827 273.217C206.292 273.217 202.896 259.642 171.937 259.642C140.977 259.642 132.561 284.998 114.793 284.998C97.0243 284.998 78.0747 258.207 56.2212 258.207H0.40625V255.336H56.4674C78.3208 255.336 97.0735 228.545 115.039 228.545C133.004 228.545 141.174 253.901 172.183 253.901C203.191 253.901 206.636 240.386 220.073 240.386C233.51 240.386 239.072 253.901 258.809 253.901C278.546 253.901 300.744 214.791 312.212 214.791C326.978 214.791 326.289 240.924 367.88 253.064C373.884 254.858 403.712 255.336 427.534 255.336Z" fill="white"/>
<path opacity="0.6" d="M427.521 255.335V258.205C396.513 258.205 389.229 305.688 363.536 305.688C345.029 305.688 326.227 265.74 302.307 265.74C279.469 265.74 277.992 283.023 263.965 283.023C249.937 283.023 241.964 258.445 219.667 258.445C193.433 258.445 187.034 314.12 164.393 314.12C141.752 314.12 131.81 262.272 110.252 262.272C88.6937 262.272 87.4632 270.704 69.2027 270.704C50.9423 270.704 34.3553 258.205 15.6519 258.205H0V255.335H15.6519C34.3553 255.335 50.9423 242.896 69.2027 242.896C87.4632 242.896 88.8905 251.268 110.252 251.268C131.613 251.268 141.506 199.48 164.393 199.48C187.28 199.48 193.433 255.155 219.667 255.155C241.767 255.155 249.199 230.517 263.965 230.517C278.731 230.517 279.469 247.8 302.307 247.8C326.227 247.8 345.029 207.912 363.536 207.912C389.229 207.972 396.513 255.335 427.521 255.335Z" fill="white"/>
<path d="M0.40625 257.604V255.81C5.18494 255.78 9.9377 254.955 14.5322 253.359C19.1128 251.701 23.4971 249.329 27.5755 246.302C35.6967 240.322 43.0796 232.608 52.1853 228.78C56.7627 226.826 61.6171 226.013 66.4589 226.388C71.2472 226.982 75.921 228.538 80.2896 230.993C89.0999 235.598 97.3196 241.697 106.179 245.883C114.919 250.367 124.503 251.856 133.89 250.189C138.556 249.438 143.074 247.675 147.228 244.986C151.34 241.801 155.919 239.608 160.714 238.528C165.611 237.8 170.578 238.775 175.037 241.339C179.467 243.731 183.503 246.84 187.834 249.172C196.319 254.213 205.908 255.826 215.2 253.777C224.321 250.727 232.643 244.878 239.367 236.794C243.016 232.901 247.091 229.641 251.475 227.106C256.009 224.696 260.967 223.709 265.897 224.235C270.811 224.701 275.566 226.565 279.777 229.677C283.843 232.852 287.709 236.39 291.343 240.262C294.848 244.022 298.839 247.052 303.156 249.232C307.525 251.106 312.188 251.74 316.79 251.086C321.457 250.615 326.047 249.346 330.424 247.319C334.853 245.285 339.086 242.654 343.664 240.621C348.267 238.547 353.126 237.435 358.036 237.332C362.936 237.381 367.8 238.349 372.457 240.202C381.71 243.611 390.275 248.993 399.331 252.163C408.387 255.332 417.887 254.136 427.485 254.435H428.715V258.92H427.485C417.887 258.92 408.289 257.724 399.331 261.193C390.373 264.661 381.71 269.565 372.457 273.153C367.8 275.006 362.936 275.974 358.036 276.023C353.126 275.976 348.262 274.883 343.664 272.794C339.086 270.761 334.853 268.07 330.424 266.096C326.049 264.05 321.46 262.761 316.79 262.269C312.184 261.634 307.521 262.289 303.156 264.183C298.839 266.362 294.848 269.393 291.343 273.153C287.721 277.024 283.853 280.543 279.777 283.678C275.579 286.834 270.819 288.721 265.897 289.18C260.967 289.706 256.009 288.719 251.475 286.309C247.111 283.73 243.041 280.474 239.367 276.621C232.658 268.5 224.332 262.628 215.2 259.578C205.907 257.554 196.325 259.167 187.834 264.183C183.503 266.575 179.467 269.625 175.037 272.017C170.582 274.598 165.616 275.593 160.714 274.887C155.926 273.78 151.351 271.589 147.228 268.429C143.065 265.752 138.553 263.972 133.89 263.166C124.498 261.521 114.915 263.03 106.179 267.532C97.3196 271.658 89.0999 277.758 80.2896 282.362C75.921 284.817 71.2472 286.373 66.4589 286.967C61.6372 287.337 56.8029 286.545 52.2345 284.635C43.0304 280.807 35.6475 272.973 27.6247 267.053C23.5359 264.05 19.1542 261.679 14.5815 259.997C9.96437 258.441 5.19763 257.636 0.40625 257.604ZM0.40625 257.604C5.19051 257.588 9.95601 258.332 14.5815 259.817C19.1787 261.469 23.5921 263.799 27.7231 266.754C35.9428 272.734 43.375 280.269 52.3329 283.917C56.8274 285.761 61.5802 286.493 66.3113 286.07C71.0246 285.427 75.6162 283.83 79.8958 281.346C88.5585 276.681 96.729 270.462 105.687 266.156C114.619 261.526 124.423 259.954 134.037 261.611C138.853 262.389 143.518 264.191 147.819 266.933C151.81 269.883 156.215 271.91 160.813 272.914C165.464 273.563 170.171 272.61 174.397 270.163C178.68 267.83 182.765 264.721 187.145 262.269C195.934 257.045 205.862 255.349 215.496 257.425C224.877 260.505 233.451 266.455 240.401 274.708C243.944 278.469 247.904 281.609 252.164 284.037C256.418 286.302 261.077 287.208 265.7 286.668C270.34 286.212 274.827 284.429 278.792 281.465C282.764 278.354 286.532 274.875 290.063 271.06C293.797 267.179 298.017 264.05 302.565 261.791C307.289 259.724 312.342 259.008 317.331 259.697C322.186 260.151 326.961 261.461 331.506 263.585C336.084 265.618 340.317 268.249 344.746 270.223C353.601 274.021 363.258 274.021 372.112 270.223C381.12 266.814 389.684 261.432 399.036 258.262C403.738 256.612 408.611 255.786 413.506 255.81H427.829L426.599 257.305V255.81L427.829 257.305H413.506C408.611 257.33 403.738 256.504 399.036 254.854C389.684 251.624 381.12 246.242 372.112 242.893C363.267 239.036 353.592 239.036 344.746 242.893C340.317 244.807 336.084 247.438 331.506 249.472C326.961 251.596 322.186 252.905 317.331 253.359C312.346 254.098 307.288 253.402 302.565 251.325C298.068 249.009 293.912 245.818 290.26 241.877C286.716 238.08 282.949 234.602 278.989 231.471C275.023 228.507 270.537 226.725 265.897 226.269C261.275 225.757 256.621 226.662 252.361 228.9C248.121 231.371 244.166 234.507 240.598 238.229C233.665 246.52 225.086 252.494 215.693 255.571C206.059 257.647 196.131 255.951 187.342 250.727C182.912 248.275 178.876 245.166 174.545 242.834C170.344 240.355 165.65 239.38 161.01 240.023C156.39 241.095 151.98 243.226 148.016 246.302C143.715 249.045 139.05 250.847 134.234 251.624C124.615 253.29 114.805 251.697 105.884 247.02C96.9258 242.714 88.7554 236.495 80.0928 231.83C75.8131 229.346 71.2215 227.749 66.5081 227.106C61.7778 226.713 57.0297 227.444 52.5298 229.259C43.4734 232.907 36.0412 240.621 27.92 246.481C23.8019 249.453 19.3847 251.764 14.7784 253.359C10.1598 254.893 5.39107 255.657 0.603095 255.631L0.40625 257.604Z" fill="white"/>
<g filter="url(#filter0_d_4233_116995)">
<ellipse cx="246.35" cy="263.011" rx="57.9754" ry="57.9746" fill="url(#paint0_linear_4233_116995)"/>
<path d="M246.351 206.536C277.541 206.536 302.826 231.821 302.826 263.011C302.826 294.201 277.541 319.485 246.351 319.485C215.16 319.485 189.875 294.201 189.875 263.011C189.875 231.821 215.16 206.536 246.351 206.536Z" stroke="white" stroke-width="3"/>
</g>
<path d="M236.695 248.518C236.695 246.211 237.612 243.999 239.242 242.368C240.873 240.737 243.085 239.821 245.392 239.821C247.698 239.821 249.91 240.737 251.541 242.368C253.172 243.999 254.088 246.211 254.088 248.518V263.011C254.088 265.318 253.172 267.53 251.541 269.16C249.91 270.791 247.698 271.707 245.392 271.707C243.085 271.707 240.873 270.791 239.242 269.16C237.612 267.53 236.695 265.318 236.695 263.011V248.518Z" fill="url(#paint1_linear_4233_116995)"/>
<path d="M232.34 258.663C232.724 258.663 233.093 258.816 233.365 259.088C233.637 259.359 233.789 259.728 233.789 260.112V263.011C233.789 266.086 235.011 269.036 237.186 271.21C239.36 273.385 242.309 274.606 245.384 274.606C248.46 274.606 251.409 273.385 253.583 271.21C255.758 269.036 256.98 266.086 256.98 263.011V260.112C256.98 259.728 257.132 259.359 257.404 259.088C257.676 258.816 258.045 258.663 258.429 258.663C258.813 258.663 259.182 258.816 259.454 259.088C259.726 259.359 259.878 259.728 259.878 260.112V263.011C259.878 266.604 258.544 270.069 256.133 272.734C253.723 275.399 250.409 277.073 246.834 277.432V283.302H255.53C255.915 283.302 256.283 283.455 256.555 283.727C256.827 283.999 256.98 284.367 256.98 284.752C256.98 285.136 256.827 285.505 256.555 285.777C256.283 286.048 255.915 286.201 255.53 286.201H235.239C234.854 286.201 234.486 286.048 234.214 285.777C233.942 285.505 233.789 285.136 233.789 284.752C233.789 284.367 233.942 283.999 234.214 283.727C234.486 283.455 234.854 283.302 235.239 283.302H243.935V277.432C240.36 277.073 237.046 275.399 234.635 272.734C232.225 270.069 230.891 266.604 230.891 263.011V260.112C230.891 259.728 231.043 259.359 231.315 259.088C231.587 258.816 231.956 258.663 232.34 258.663Z" fill="url(#paint2_linear_4233_116995)"/>
<defs>
<filter id="filter0_d_4233_116995" x="158.375" y="179.036" width="175.949" height="175.949" filterUnits="userSpaceOnUse" color-interpolation-filters="sRGB">
<feFlood flood-opacity="0" result="BackgroundImageFix"/>
<feColorMatrix in="SourceAlpha" type="matrix" values="0 0 0 0 0 0 0 0 0 0 0 0 0 0 0 0 0 0 127 0" result="hardAlpha"/>
<feOffset dy="4"/>
<feGaussianBlur stdDeviation="15"/>
<feComposite in2="hardAlpha" operator="out"/>
<feColorMatrix type="matrix" values="0 0 0 0 0 0 0 0 0 0 0 0 0 0 0 0 0 0 0.15 0"/>
<feBlend mode="normal" in2="BackgroundImageFix" result="effect1_dropShadow_4233_116995"/>
<feBlend mode="normal" in="SourceGraphic" in2="effect1_dropShadow_4233_116995" result="shape"/>
</filter>
<linearGradient id="paint0_linear_4233_116995" x1="203.835" y1="225.327" x2="297.561" y2="312.29" gradientUnits="userSpaceOnUse">
<stop stop-color="#E7E4FF"/>
<stop offset="1" stop-color="#D3E8FF"/>
</linearGradient>
<linearGradient id="paint1_linear_4233_116995" x1="238.869" y1="242.878" x2="261.473" y2="255.13" gradientUnits="userSpaceOnUse">
<stop stop-color="#2E6DCC"/>
<stop offset="1" stop-color="#4938CF"/>
</linearGradient>
<linearGradient id="paint2_linear_4233_116995" x1="234.514" y1="261.303" x2="257.787" y2="285.649" gradientUnits="userSpaceOnUse">
<stop stop-color="#2E6DCC"/>
<stop offset="1" stop-color="#4938CF"/>
</linearGradient>
</defs>
</svg>
