<svg width="628" height="641" viewBox="0 0 628 641" fill="none" xmlns="http://www.w3.org/2000/svg">
<circle cx="312.5" cy="311.5" r="311.5" fill="url(#paint0_radial_4243_120882)" fill-opacity="0.5"/>
<circle cx="313.5" cy="315.5" r="185.5" fill="url(#paint1_radial_4243_120882)"/>
<g filter="url(#filter0_d_4243_120882)">
<circle cx="156" cy="141" r="50" fill="white"/>
</g>
<g clip-path="url(#clip0_4243_120882)">
<path d="M160.381 118.418C148.357 118.418 148.228 123.085 148.228 124.046C148.228 125.503 148.228 129.876 148.228 129.876H160.612V131.627C160.612 131.627 147.717 131.627 143.309 131.627C139.628 131.627 135.004 133.864 135.004 143.78C135.004 152.888 138.611 156.41 142.252 156.41C143.333 156.41 146.578 156.41 146.578 156.41C146.578 156.41 146.578 151.889 146.578 150.333C146.578 147.791 147.838 143.085 153.711 143.085C161.076 143.085 162.957 143.085 165.994 143.085C167.8 143.085 172.895 142.3 172.895 136.416C172.895 130.188 172.895 128.133 172.895 125.203C172.895 123.743 172.646 118.418 160.381 118.418ZM153.552 122.339C154.784 122.339 155.78 123.334 155.78 124.567C155.78 125.799 154.784 126.795 153.552 126.795C152.319 126.795 151.324 125.799 151.324 124.567C151.324 123.334 152.319 122.339 153.552 122.339Z" fill="url(#paint2_linear_4243_120882)"/>
<path d="M160.554 169.344C172.572 169.344 172.721 164.589 172.721 163.716C172.721 162.259 172.721 157.886 172.721 157.886H160.322V156.135C160.322 156.135 173.3 156.135 177.626 156.135C181.333 156.135 185.93 153.842 185.93 143.982C185.93 133.185 181.051 131.352 178.682 131.352C177.601 131.352 174.356 131.352 174.356 131.352C174.356 131.352 174.356 136.082 174.356 137.429C174.356 139.971 173.138 144.677 167.224 144.677C159.858 144.677 158.207 144.677 154.94 144.677C153.138 144.677 148.039 145.555 148.039 151.346C148.039 158.048 148.039 159.802 148.039 162.559C148.039 164.98 149.519 169.344 160.554 169.344ZM167.383 165.423C166.15 165.423 165.155 164.427 165.155 163.195C165.155 161.963 166.15 160.967 167.383 160.967C168.615 160.967 169.611 161.963 169.611 163.195C169.611 164.427 168.615 165.423 167.383 165.423Z" fill="url(#paint3_linear_4243_120882)"/>
</g>
<path d="M269.002 263.734L186.121 180.853" stroke="white" stroke-width="5"/>
<g clip-path="url(#clip1_4243_120882)">
<path d="M469.059 192C496.673 192 519.059 169.614 519.059 142C519.059 114.386 496.673 92 469.059 92C441.444 92 419.059 114.386 419.059 142C419.059 169.614 441.444 192 469.059 192Z" fill="#0091E2"/>
<path d="M499.85 137.068C499.693 136.941 498.277 135.877 495.289 135.877C494.498 135.877 493.707 135.936 492.926 136.082C492.35 132.107 489.068 130.174 488.922 130.086L488.121 129.617L487.594 130.379C486.93 131.404 486.451 132.527 486.168 133.719C485.631 135.984 485.953 138.113 487.105 139.93C485.719 140.701 483.482 140.896 483.033 140.906H446.109C445.143 140.906 444.361 141.688 444.361 142.654C444.322 145.887 444.869 149.1 445.973 152.137C447.242 155.477 449.137 157.928 451.598 159.432C454.352 161.121 458.834 162.088 463.922 162.088C466.217 162.098 468.512 161.883 470.768 161.463C473.902 160.887 476.92 159.793 479.693 158.221C481.979 156.893 484.039 155.213 485.787 153.23C488.707 149.92 490.455 146.229 491.754 142.957H492.271C495.475 142.957 497.447 141.678 498.531 140.604C499.254 139.92 499.82 139.09 500.182 138.162L500.406 137.488L499.85 137.068ZM449.527 139.842H454.479C454.713 139.842 454.908 139.646 454.908 139.412V135.008C454.908 134.773 454.713 134.578 454.479 134.568H449.527C449.293 134.568 449.098 134.764 449.098 134.998V139.412C449.098 139.656 449.293 139.842 449.527 139.842ZM456.354 139.842H461.305C461.539 139.842 461.734 139.646 461.734 139.412V135.008C461.734 134.773 461.539 134.578 461.305 134.568H456.354C456.109 134.568 455.914 134.764 455.914 135.008V139.412C455.914 139.656 456.109 139.842 456.354 139.842ZM463.268 139.852H468.219C468.453 139.852 468.648 139.656 468.648 139.422V135.018C468.648 134.783 468.453 134.588 468.219 134.578H463.268C463.033 134.578 462.838 134.773 462.838 135.008V139.422C462.838 139.656 463.033 139.842 463.268 139.852ZM470.113 139.852H475.064C475.299 139.852 475.494 139.656 475.504 139.422V135.018C475.504 134.773 475.309 134.578 475.064 134.578H470.113C469.879 134.578 469.684 134.773 469.684 135.008V139.422C469.684 139.656 469.869 139.852 470.113 139.852ZM456.344 133.504H461.295C461.529 133.504 461.725 133.309 461.725 133.064V128.66C461.725 128.426 461.529 128.23 461.295 128.23H456.344C456.1 128.23 455.914 128.426 455.904 128.66V133.064C455.914 133.309 456.109 133.504 456.344 133.504ZM463.268 133.504H468.219C468.453 133.504 468.648 133.309 468.648 133.064V128.66C468.648 128.426 468.453 128.23 468.219 128.23H463.268C463.033 128.23 462.838 128.426 462.838 128.66V133.064C462.838 133.309 463.033 133.504 463.268 133.504ZM470.113 133.504H475.064C475.309 133.504 475.494 133.309 475.504 133.064V128.66C475.504 128.416 475.309 128.23 475.064 128.23H470.113C469.879 128.23 469.684 128.426 469.684 128.66V133.064C469.684 133.309 469.869 133.504 470.113 133.504ZM470.113 127.166H475.064C475.309 127.166 475.504 126.971 475.504 126.727V122.312C475.504 122.078 475.309 121.883 475.064 121.883H470.113C469.879 121.883 469.684 122.078 469.684 122.312V126.727C469.684 126.971 469.869 127.166 470.113 127.166ZM477.008 139.852H481.959C482.193 139.852 482.389 139.656 482.389 139.422V135.018C482.389 134.773 482.193 134.588 481.959 134.578H477.008C476.773 134.578 476.578 134.773 476.578 135.008V139.422C476.578 139.656 476.773 139.852 477.008 139.852Z" fill="white"/>
</g>
<path d="M351.99 260.921L434.871 178.04" stroke="#0091E2" stroke-width="5"/>
<g filter="url(#filter1_d_4243_120882)">
<circle cx="538" cy="372" r="50" fill="white"/>
</g>
<g clip-path="url(#clip2_4243_120882)">
<path fill-rule="evenodd" clip-rule="evenodd" d="M538.8 339.015C531.729 339.03 524.824 341.16 518.972 345.13C513.12 349.1 508.589 354.729 505.961 361.294C503.333 367.859 502.728 375.06 504.224 381.971C505.72 388.882 509.248 395.189 514.355 400.08C515.562 401.232 517.141 401.913 518.808 402C520.474 402.086 522.116 401.573 523.436 400.552C527.797 397.317 533.084 395.57 538.515 395.57C543.945 395.57 549.232 397.317 553.594 400.552C554.926 401.606 556.596 402.14 558.292 402.053C559.988 401.966 561.595 401.265 562.812 400.08C567.894 395.215 571.413 388.948 572.923 382.076C574.432 375.205 573.864 368.04 571.289 361.493C568.715 354.945 564.251 349.312 558.465 345.309C552.68 341.307 545.834 339.115 538.8 339.015ZM538.602 392.062C536.264 392.138 533.934 391.735 531.757 390.879C529.58 390.022 527.6 388.73 525.94 387.081C524.28 385.432 522.975 383.461 522.103 381.289C521.232 379.118 520.814 376.791 520.874 374.452C520.795 372.088 521.192 369.733 522.042 367.526C522.892 365.319 524.177 363.306 525.821 361.606C527.465 359.906 529.434 358.554 531.612 357.63C533.789 356.707 536.13 356.231 538.494 356.231C540.859 356.231 543.2 356.707 545.377 357.63C547.555 358.554 549.524 359.906 551.168 361.606C552.812 363.306 554.097 365.319 554.947 367.526C555.797 369.733 556.194 372.088 556.115 374.452C556.177 376.782 555.764 379.099 554.901 381.264C554.038 383.429 552.743 385.395 551.095 387.043C549.448 388.691 547.481 389.986 545.316 390.849C543.152 391.712 540.834 392.125 538.504 392.062" fill="#81B5A1"/>
</g>
<path d="M497.577 362.76L384.359 332.423" stroke="white" stroke-width="5"/>
<g filter="url(#filter2_d_4243_120882)">
<circle cx="302" cy="547" r="50" fill="white"/>
</g>
<g clip-path="url(#clip3_4243_120882)">
<path d="M326.905 539.412C326.735 533.935 324.411 528.747 320.438 524.974C316.465 521.2 311.164 519.147 305.686 519.259C301.255 519.207 296.918 520.537 293.279 523.064C289.639 525.592 286.878 529.191 285.38 533.361C280.714 533.992 276.429 536.275 273.303 539.795C270.176 543.315 268.415 547.84 268.34 552.547C268.48 557.843 270.715 562.866 274.556 566.514C278.397 570.162 283.528 572.137 288.824 572.005H324.197C328.579 571.895 332.758 570.131 335.892 567.066C339.026 564.002 340.884 559.864 341.092 555.486C341.011 551.561 339.541 547.793 336.944 544.85C334.346 541.907 330.789 539.98 326.905 539.412Z" fill="url(#paint4_linear_4243_120882)"/>
<path d="M320.48 556.589V542.847H316.842V559.54H326.785V556.589H320.48ZM291.621 549.839C290.87 549.538 290.174 549.114 289.56 548.586C289.397 548.414 289.27 548.211 289.187 547.989C289.104 547.767 289.066 547.53 289.075 547.293C289.063 547.056 289.113 546.82 289.219 546.607C289.325 546.395 289.485 546.214 289.681 546.081C290.179 545.737 290.775 545.567 291.379 545.596C292.818 545.531 294.239 545.943 295.421 546.768V543.292C294.129 542.811 292.756 542.591 291.379 542.645C289.793 542.561 288.23 543.049 286.973 544.019C286.426 544.442 285.986 544.988 285.691 545.613C285.396 546.239 285.253 546.925 285.276 547.616C285.276 549.678 286.569 551.294 289.317 552.507C290.21 552.887 291.051 553.376 291.823 553.962C292.013 554.12 292.165 554.318 292.27 554.542C292.374 554.765 292.429 555.009 292.43 555.255C292.429 555.501 292.371 555.742 292.258 555.96C292.146 556.178 291.983 556.366 291.783 556.508C291.233 556.831 290.601 556.986 289.964 556.953C288.338 556.94 286.773 556.336 285.559 555.255V559.014C286.894 559.702 288.383 560.036 289.883 559.984C291.578 560.086 293.257 559.616 294.653 558.651C295.146 558.184 295.523 557.608 295.755 556.969C295.986 556.331 296.066 555.647 295.986 554.973C296.007 553.938 295.647 552.931 294.976 552.143C294.031 551.149 292.888 550.364 291.621 549.839ZM312.8 556.266C313.678 554.86 314.143 553.235 314.143 551.577C314.143 549.92 313.678 548.295 312.8 546.889C312.17 545.626 311.187 544.574 309.971 543.858C308.739 543.159 307.345 542.797 305.929 542.807C304.403 542.774 302.895 543.15 301.564 543.898C300.316 544.594 299.292 545.631 298.614 546.889C297.899 548.318 297.538 549.899 297.563 551.497C297.571 552.901 297.903 554.284 298.533 555.538C299.151 556.786 300.12 557.826 301.322 558.529C302.542 559.274 303.934 559.692 305.363 559.742L308.839 563.784H313.73L308.758 559.338C310.433 558.836 311.868 557.744 312.8 556.266ZM308.758 555.255C308.39 555.712 307.921 556.078 307.388 556.323C306.856 556.568 306.273 556.687 305.687 556.67C305.096 556.69 304.508 556.569 303.974 556.316C303.44 556.063 302.974 555.685 302.615 555.215C301.762 554.047 301.347 552.616 301.443 551.173C301.349 549.73 301.763 548.3 302.615 547.131C302.995 546.663 303.476 546.285 304.022 546.026C304.567 545.767 305.164 545.634 305.768 545.636C306.358 545.61 306.945 545.734 307.475 545.995C308.005 546.256 308.46 546.647 308.799 547.131C309.595 548.323 309.979 549.743 309.89 551.173C310.032 552.627 309.628 554.082 308.758 555.255Z" fill="#F2F2F2"/>
</g>
<path d="M303.547 496.729V379.517" stroke="white" stroke-width="5"/>
<g filter="url(#filter3_d_4243_120882)">
<circle cx="90" cy="387.002" r="50" fill="white"/>
</g>
<path d="M81.9743 357.565H100.172L81.281 413.537C81.0868 414.112 80.7172 414.612 80.2241 414.966C79.731 415.32 79.1393 415.511 78.5323 415.511H64.3699C63.91 415.511 63.4566 415.402 63.0474 415.192C62.6382 414.982 62.2848 414.677 62.0165 414.304C61.7482 413.93 61.5728 413.498 61.5046 413.043C61.4365 412.588 61.4776 412.124 61.6247 411.688L79.2249 359.539C79.4189 358.963 79.7886 358.463 80.2819 358.109C80.7751 357.755 81.3671 357.565 81.9743 357.565Z" fill="url(#paint5_linear_4243_120882)"/>
<path d="M108.421 395.107H79.5636C79.2953 395.107 79.0332 395.188 78.8113 395.338C78.5894 395.489 78.4181 395.703 78.3197 395.953C78.2213 396.203 78.2003 396.476 78.2595 396.738C78.3187 396.999 78.4553 397.237 78.6516 397.42L97.1946 414.727C97.7345 415.231 98.4453 415.511 99.1836 415.511H115.524L108.421 395.107Z" fill="#0078D4"/>
<path d="M81.9745 357.565C81.3606 357.563 80.7621 357.757 80.2663 358.119C79.7705 358.481 79.4035 358.992 79.2188 359.578L61.6465 411.641C61.4896 412.078 61.4403 412.547 61.5029 413.007C61.5655 413.468 61.738 413.906 62.0059 414.286C62.2738 414.666 62.6293 414.975 63.0421 415.189C63.455 415.402 63.9131 415.513 64.3778 415.511H78.9057C79.4468 415.415 79.9525 415.176 80.3712 414.82C80.7899 414.464 81.1066 414.003 81.2889 413.485L84.7931 403.157L97.3103 414.832C97.8348 415.266 98.4928 415.506 99.1735 415.511H115.453L108.313 395.108L87.4993 395.113L100.238 357.565H81.9745Z" fill="url(#paint6_linear_4243_120882)"/>
<path d="M105.218 359.536C105.024 358.962 104.655 358.463 104.162 358.109C103.67 357.756 103.079 357.565 102.473 357.565H82.1914C82.7977 357.565 83.3886 357.756 83.8811 358.109C84.3736 358.463 84.7428 358.962 84.9367 359.536L102.538 411.688C102.685 412.124 102.726 412.588 102.658 413.043C102.59 413.498 102.414 413.93 102.146 414.304C101.878 414.678 101.524 414.982 101.115 415.192C100.706 415.402 100.252 415.512 99.7923 415.512H120.074C120.534 415.512 120.987 415.402 121.397 415.192C121.806 414.982 122.159 414.678 122.427 414.304C122.696 413.93 122.871 413.498 122.939 413.043C123.007 412.588 122.966 412.123 122.819 411.688L105.218 359.536Z" fill="url(#paint7_linear_4243_120882)"/>
<path d="M246.571 330.649L135.594 368.367" stroke="white" stroke-width="5"/>
<circle cx="303.544" cy="314.445" r="95.7903" fill="url(#paint8_linear_4243_120882)"/>
<path d="M326.467 289.956C328.669 289.956 330.455 291.742 330.455 293.945C330.455 296.148 328.669 297.934 326.467 297.934C325.602 297.934 324.803 297.658 324.149 297.19L282.246 339.094C282.713 339.747 282.989 340.547 282.989 341.411C282.989 343.614 281.203 345.4 279 345.4C276.798 345.4 275.012 343.614 275.012 341.411C275.012 339.208 276.798 337.422 279 337.422C279.762 337.422 280.473 337.636 281.078 338.006L323.061 296.023C322.691 295.417 322.478 294.706 322.478 293.945C322.478 291.742 324.264 289.956 326.467 289.956Z" fill="white"/>
<path d="M330.457 341.411C330.457 343.614 328.671 345.4 326.468 345.4C324.265 345.4 322.48 343.614 322.48 341.411C322.48 340.547 322.755 339.747 323.223 339.094L281.32 297.19C280.666 297.658 279.867 297.934 279.002 297.934C276.799 297.934 275.013 296.148 275.013 293.945C275.013 291.742 276.799 289.956 279.002 289.956C281.205 289.956 282.991 291.742 282.991 293.945C282.991 294.706 282.778 295.417 282.408 296.023L324.391 338.006C324.996 337.636 325.707 337.422 326.468 337.422C328.671 337.422 330.457 339.208 330.457 341.411Z" fill="white"/>
<path d="M305.553 354.062C303.996 355.62 301.47 355.62 299.913 354.062C298.355 352.504 298.355 349.979 299.913 348.421C300.524 347.81 301.284 347.439 302.077 347.308V288.047C301.284 287.916 300.524 287.545 299.913 286.934C298.355 285.376 298.355 282.851 299.913 281.293C301.47 279.735 303.996 279.735 305.553 281.293C307.111 282.851 307.111 285.376 305.553 286.934C305.015 287.472 304.361 287.825 303.672 287.991V347.364C304.361 347.53 305.015 347.883 305.553 348.421C307.111 349.979 307.111 352.504 305.553 354.062Z" fill="white"/>
<path d="M266.35 320.499C264.793 318.941 264.793 316.416 266.35 314.858C267.908 313.3 270.434 313.3 271.991 314.858C272.603 315.469 272.973 316.23 273.104 317.022H332.364C332.496 316.23 332.866 315.469 333.477 314.858C335.035 313.3 337.561 313.3 339.118 314.858C340.676 316.416 340.676 318.941 339.118 320.499C337.561 322.057 335.035 322.057 333.477 320.499C332.939 319.961 332.587 319.307 332.421 318.617H273.048C272.882 319.307 272.53 319.961 271.991 320.499C270.434 322.057 267.908 322.057 266.35 320.499Z" fill="white"/>
<path d="M326.153 317.563C326.153 330.56 315.617 341.097 302.62 341.097C289.622 341.097 279.086 330.56 279.086 317.563C279.086 304.566 289.622 294.029 302.62 294.029C315.617 294.029 326.153 304.566 326.153 317.563Z" fill="white"/>
<path d="M313.404 306.793V328.239H310.994C309.893 328.239 309 327.346 309 326.245V308.788C309 307.686 309.893 306.793 310.994 306.793H313.404Z" fill="#161D5D"/>
<path d="M297.996 310.461L292.614 326.866C292.345 327.685 291.581 328.239 290.719 328.239H287.465L295.433 306.793L298.234 307.591L297.996 310.461ZM304.286 328.239C303.424 328.239 302.66 327.686 302.391 326.868L296.995 310.461L295.433 306.793H296.775C298.439 306.793 299.929 307.827 300.512 309.386L307.555 328.239H304.286ZM302.577 320.256V323.717H291.25V320.256H302.577Z" fill="#161D5D"/>
<defs>
<filter id="filter0_d_4243_120882" x="66" y="54.9998" width="180" height="180" filterUnits="userSpaceOnUse" color-interpolation-filters="sRGB">
<feFlood flood-opacity="0" result="BackgroundImageFix"/>
<feColorMatrix in="SourceAlpha" type="matrix" values="0 0 0 0 0 0 0 0 0 0 0 0 0 0 0 0 0 0 127 0" result="hardAlpha"/>
<feOffset dy="4"/>
<feGaussianBlur stdDeviation="20"/>
<feComposite in2="hardAlpha" operator="out"/>
<feColorMatrix type="matrix" values="0 0 0 0 0 0 0 0 0 0 0 0 0 0 0 0 0 0 0.1 0"/>
<feBlend mode="normal" in2="BackgroundImageFix" result="effect1_dropShadow_4243_120882"/>
<feBlend mode="normal" in="SourceGraphic" in2="effect1_dropShadow_4243_120882" result="shape"/>
</filter>
<filter id="filter1_d_4243_120882" x="448" y="286" width="180" height="180" filterUnits="userSpaceOnUse" color-interpolation-filters="sRGB">
<feFlood flood-opacity="0" result="BackgroundImageFix"/>
<feColorMatrix in="SourceAlpha" type="matrix" values="0 0 0 0 0 0 0 0 0 0 0 0 0 0 0 0 0 0 127 0" result="hardAlpha"/>
<feOffset dy="4"/>
<feGaussianBlur stdDeviation="20"/>
<feComposite in2="hardAlpha" operator="out"/>
<feColorMatrix type="matrix" values="0 0 0 0 0 0 0 0 0 0 0 0 0 0 0 0 0 0 0.1 0"/>
<feBlend mode="normal" in2="BackgroundImageFix" result="effect1_dropShadow_4243_120882"/>
<feBlend mode="normal" in="SourceGraphic" in2="effect1_dropShadow_4243_120882" result="shape"/>
</filter>
<filter id="filter2_d_4243_120882" x="212" y="461" width="180" height="180" filterUnits="userSpaceOnUse" color-interpolation-filters="sRGB">
<feFlood flood-opacity="0" result="BackgroundImageFix"/>
<feColorMatrix in="SourceAlpha" type="matrix" values="0 0 0 0 0 0 0 0 0 0 0 0 0 0 0 0 0 0 127 0" result="hardAlpha"/>
<feOffset dy="4"/>
<feGaussianBlur stdDeviation="20"/>
<feComposite in2="hardAlpha" operator="out"/>
<feColorMatrix type="matrix" values="0 0 0 0 0 0 0 0 0 0 0 0 0 0 0 0 0 0 0.2 0"/>
<feBlend mode="normal" in2="BackgroundImageFix" result="effect1_dropShadow_4243_120882"/>
<feBlend mode="normal" in="SourceGraphic" in2="effect1_dropShadow_4243_120882" result="shape"/>
</filter>
<filter id="filter3_d_4243_120882" x="0" y="301.002" width="180" height="180" filterUnits="userSpaceOnUse" color-interpolation-filters="sRGB">
<feFlood flood-opacity="0" result="BackgroundImageFix"/>
<feColorMatrix in="SourceAlpha" type="matrix" values="0 0 0 0 0 0 0 0 0 0 0 0 0 0 0 0 0 0 127 0" result="hardAlpha"/>
<feOffset dy="4"/>
<feGaussianBlur stdDeviation="20"/>
<feComposite in2="hardAlpha" operator="out"/>
<feColorMatrix type="matrix" values="0 0 0 0 0 0 0 0 0 0 0 0 0 0 0 0 0 0 0.1 0"/>
<feBlend mode="normal" in2="BackgroundImageFix" result="effect1_dropShadow_4243_120882"/>
<feBlend mode="normal" in="SourceGraphic" in2="effect1_dropShadow_4243_120882" result="shape"/>
</filter>
<radialGradient id="paint0_radial_4243_120882" cx="0" cy="0" r="1" gradientUnits="userSpaceOnUse" gradientTransform="translate(312.5 312.032) rotate(90) scale(310.968)">
<stop stop-color="#8B53FF"/>
<stop offset="1" stop-color="#4B2FE9"/>
</radialGradient>
<radialGradient id="paint1_radial_4243_120882" cx="0" cy="0" r="1" gradientUnits="userSpaceOnUse" gradientTransform="translate(313.5 315.817) rotate(90) scale(185.183)">
<stop stop-color="#8B53FF"/>
<stop offset="1" stop-color="#4B2FE9"/>
</radialGradient>
<linearGradient id="paint2_linear_4243_120882" x1="139.776" y1="122.967" x2="165.09" y2="148.366" gradientUnits="userSpaceOnUse">
<stop stop-color="#387EB8"/>
<stop offset="1" stop-color="#366994"/>
</linearGradient>
<linearGradient id="paint3_linear_4243_120882" x1="155.16" y1="139.194" x2="182.3" y2="165.196" gradientUnits="userSpaceOnUse">
<stop stop-color="#FFE052"/>
<stop offset="1" stop-color="#FFC331"/>
</linearGradient>
<linearGradient id="paint4_linear_4243_120882" x1="308.386" y1="574.951" x2="298.718" y2="520.144" gradientUnits="userSpaceOnUse">
<stop offset="0.15" stop-color="#0078D4"/>
<stop offset="0.8" stop-color="#5EA0EF"/>
<stop offset="1" stop-color="#83B9F9"/>
</linearGradient>
<linearGradient id="paint5_linear_4243_120882" x1="88.6068" y1="361.859" x2="69.708" y2="417.691" gradientUnits="userSpaceOnUse">
<stop stop-color="#114A8B"/>
<stop offset="1" stop-color="#0669BC"/>
</linearGradient>
<linearGradient id="paint6_linear_4243_120882" x1="94.5105" y1="387.879" x2="90.139" y2="389.357" gradientUnits="userSpaceOnUse">
<stop stop-opacity="0.3"/>
<stop offset="0.071" stop-opacity="0.2"/>
<stop offset="0.321" stop-opacity="0.1"/>
<stop offset="0.623" stop-opacity="0.05"/>
<stop offset="1" stop-opacity="0"/>
</linearGradient>
<linearGradient id="paint7_linear_4243_120882" x1="92.1066" y1="360.231" x2="112.852" y2="415.5" gradientUnits="userSpaceOnUse">
<stop stop-color="#3CCBF4"/>
<stop offset="1" stop-color="#2892DF"/>
</linearGradient>
<linearGradient id="paint8_linear_4243_120882" x1="349.216" y1="244.926" x2="233.217" y2="379.922" gradientUnits="userSpaceOnUse">
<stop stop-color="#213E99"/>
<stop offset="0.956731" stop-color="#9838CF"/>
</linearGradient>
<clipPath id="clip0_4243_120882">
<rect width="50.9265" height="50.9265" fill="white" transform="translate(135.004 118.418)"/>
</clipPath>
<clipPath id="clip1_4243_120882">
<rect width="100" height="100" fill="white" transform="translate(419.059 92)"/>
</clipPath>
<clipPath id="clip2_4243_120882">
<rect width="70.3268" height="70.3274" fill="white" transform="translate(503.422 335.375)"/>
</clipPath>
<clipPath id="clip3_4243_120882">
<rect width="72.7521" height="72.7522" fill="white" transform="translate(268.34 510.513)"/>
</clipPath>
</defs>
</svg>
